<?xml version="1.0" encoding="utf-8"?>
<!-- Generator: Adobe Illustrator 22.0.1, SVG Export Plug-In . SVG Version: 6.00 Build 0)  -->
<svg version="1.1" id="Calque_1" xmlns="http://www.w3.org/2000/svg" xmlns:xlink="http://www.w3.org/1999/xlink" x="0px" y="0px"
	 viewBox="0 0 432 432" style="enable-background:new 0 0 432 432;" xml:space="preserve">
<style type="text/css">
	.st0{fill:#EE724F;}
	.st1{fill:#FDCB3B;}
	.st2{fill:#36B6B1;}
	.st3{fill:#E73868;}
	.st4{fill:#F28F3F;}
	.st5{fill:#F9C528;}
	.st6{fill:#1B1B1B;}
	.st7{fill:#EA5054;}
	.st8{fill:#816C59;}
	.st9{fill:#C3AE91;}
	.st10{fill:#B4D4E1;}
	.st11{fill:#F9C8BC;}
	.st12{fill:#8FB23C;}
	.st13{fill:#EB5A58;}
	.st14{fill:#343434;}
	.st15{fill:#91CFD0;}
	.st16{fill:#FFE222;}
	.st17{fill:#B9CF48;}
	.st18{fill:#EC6284;}
	.st19{fill:#0D9380;}
	.st20{fill:#9BB581;}
	.st21{fill:#DB9EA0;}
	.st22{fill:#9A4C5F;}
	.st23{fill:#A5B449;}
	.st24{fill:#5BA645;}
	.st25{fill:#7ABA46;}
	.st26{fill:#CDCCCC;}
	.st27{fill:#EAE374;}
	.st28{fill:#10AB92;}
	.st29{fill:#A1D4C9;}
	.st30{fill:#9EB15A;}
	.st31{fill:#508CB3;}
	.st32{fill:#DE9496;}
	.st33{fill:#B3B1AB;}
	.st34{fill:#B1ADA7;}
	.st35{fill:#C1292E;}
	.st36{fill:#FDF0CE;}
	.st37{fill:#00ADA9;}
	.st38{fill:#F5A899;}
	.st39{fill:#8BCDD0;}
	.st40{fill:#00ABAB;}
	.st41{fill:#BBDCEA;}
	.st42{fill:#D49F61;}
	.st43{fill:#EC6150;}
	.st44{fill:#00A8E4;}
	.st45{fill:#95D1D4;}
	.st46{fill:#FAC4A2;}
	.st47{fill:#EB584D;}
	.st48{fill:#24211E;}
	.st49{fill:#FBC47D;}
	.st50{fill:#F28F79;}
	.st51{fill:#639BD3;}
	.st52{fill:#E8424B;}
	.st53{fill:#84B128;}
	.st54{fill:#8D715B;}
	.st55{fill:#C8B498;}
	.st56{fill:#B1DFF6;}
	.st57{fill:#3B3835;}
	.st58{fill:#F8BA00;}
	.st59{fill:#4266AE;}
	.st60{fill:#F69F28;}
	.st61{fill:#020203;}
	.st62{fill:#368DB8;}
</style>
<g>
	<g>
		<path class="st5" d="M141.6,98.2c0.1-0.7,0.2-1.4,0.3-2c0.8-5.5,2.1-10.9,4.5-16c2.9-6.2,7.2-11.2,12.9-15
			c0.2-0.1,0.3-0.2,0.5-0.3c0.9-0.4,1.8,0.2,1.8,1.2c0,0.3-0.1,0.6-0.1,0.9c-0.3,1.2-0.6,2.4-0.8,3.6c-0.4,2.5-0.1,4.9,0.7,7.2
			c0.6,1.9,1.5,3.6,2.5,5.3c1.2,2.1,2.3,4.2,3.4,6.4c1.2,2.3,2,4.7,2.5,7.2c0.1,0.3,0.1,0.6,0.2,1c0.1-0.1,0.2-0.2,0.2-0.2
			c2.4-4,5.6-7.1,9.3-9.8c3.9-2.8,8.1-5.2,12.6-6.9c2.4-0.9,4.8-1.7,7.3-2.1c1.2-0.2,2.4-0.3,3.7-0.5c0.1,0,0.3,0,0.4,0
			c0.9,0.1,1.5,0.9,1.1,1.8c-0.1,0.3-0.3,0.6-0.5,0.9c-0.7,1-1.5,1.9-2.2,2.9c-1.3,1.8-2.4,3.6-3.1,5.7c-0.5,1.5-0.8,3.1-0.9,4.7
			c-0.2,1.9-0.3,3.9-0.4,5.8c-0.3,3.2-0.8,6.3-2,9.3c-0.3,0.6-0.6,1.3-0.9,2c0.2,0,0.3,0,0.4-0.1c3.8-1.8,7.9-2.7,12.1-3.2
			c4-0.4,8.1-0.5,12.1-0.2c3.9,0.3,7.6,1.2,11.1,2.8c0.4,0.2,0.7,0.3,1.1,0.5c0.2,0.1,0.4,0.2,0.6,0.3c0.8,0.6,0.8,1.6,0,2.1
			c-0.5,0.3-1,0.5-1.5,0.7c-1.6,0.6-3,1.5-4.3,2.6c-1.4,1.2-2.6,2.6-3.6,4.1c-0.9,1.5-1.8,3-2.7,4.5c-1.1,1.9-2.2,3.7-3.5,5.4
			c-1.3,1.7-2.8,3.1-4.5,4.3c-0.1,0-0.1,0.1-0.2,0.2c0.2,0.2,0.4,0.1,0.6,0.1c2.4,0,4.7,0.2,7,0.6c5.5,1,10.4,3.2,14.9,6.5
			c1.1,0.8,2.1,1.7,3.1,2.6c2.2,2,3.8,4.4,5.2,6.9c0.2,0.3,0.3,0.6,0.3,0.9c0.2,0.8-0.4,1.6-1.3,1.6c-0.4,0-0.7-0.1-1.1-0.2
			c-1.6-0.4-3.3-0.7-5-0.8c-2.6-0.1-5.1,0.4-7.4,1.5c-1.1,0.5-2.2,1.1-3.2,1.7c-3.2,1.7-6.5,3.3-10,4.4c-1.1,0.3-2.2,0.5-3.2,0.7
			c-0.2,0-0.4,0.1-0.7,0.1c0.3,0.1,0.4,0.2,0.6,0.3c3.8,2.1,7.3,4.5,10.3,7.6c2.5,2.6,4.7,5.4,6.2,8.8c1.2,2.8,2,5.7,2.5,8.7
			c0.4,2.5,0.6,5,0.5,7.5c0,0.4,0,0.8-0.1,1.2c-0.2,1.2-1.3,1.7-2.4,1.1c-0.3-0.2-0.6-0.4-0.9-0.7c-2.2-2-4.9-3.1-7.8-3.6
			c-2.6-0.5-5.2-0.8-7.8-1c-2.5-0.2-5-0.3-7.5-0.7c-1.3-0.2-2.7-0.5-4-0.8c-1.2-0.4-2.4-0.9-3.7-1.3c-0.1-0.1-0.3-0.1-0.5-0.2
			c0.4,0.6,0.7,1.2,1,1.7c2.3,4.1,3.8,8.5,4.3,13.2c0.4,3.7,0.2,7.4-0.3,11.1c-0.5,3.2-1.4,6.3-2.7,9.3c-0.1,0.3-0.3,0.6-0.4,0.8
			c-0.3,0.4-0.7,0.7-1.2,0.6c-0.6,0-0.9-0.4-1.1-0.9c-0.1-0.2-0.1-0.5-0.2-0.7c-0.6-2.3-1.5-4.5-3-6.4c-1.1-1.4-2.4-2.7-3.9-3.7
			c-1.2-0.8-2.4-1.5-3.6-2.2c-1.5-0.9-3.1-1.8-4.6-2.8c-1.8-1.1-3.5-2.4-5-3.8c-0.9-0.8-1.7-1.7-2.4-2.8c0,0.2-0.1,0.3-0.1,0.4
			c0,4.8-1.1,9.3-3.1,13.6c-2.1,4.6-4.7,8.7-8.3,12.3c-2,1.9-4.2,3.4-6.5,4.8c-0.2,0.1-0.4,0.2-0.6,0.2c-0.9,0.2-1.6-0.5-1.5-1.4
			c0-0.3,0.1-0.5,0.2-0.8c0.3-1.1,0.7-2.1,0.9-3.2c0.6-3.3,0.1-6.5-1.2-9.5c-0.3-0.8-0.8-1.5-1.2-2.3c-0.9-1.7-1.9-3.5-2.9-5.2
			c-1.4-2.6-2.5-5.4-3.1-8.3c0-0.1,0-0.2-0.1-0.4c-0.1,0.1-0.2,0.2-0.2,0.3c-2.8,5.8-7.1,10.2-12.5,13.6c-3,1.9-6.2,3.5-9.7,4.6
			c-3.3,1.1-6.8,1.4-10.3,1.2c-0.3,0-0.6-0.1-0.8-0.2c-0.7-0.3-1-1.1-0.6-1.8c0.1-0.2,0.3-0.4,0.4-0.5c0.7-0.9,1.5-1.7,2.2-2.6
			c1.1-1.5,1.8-3.2,2.4-5c0.7-2.2,1.1-4.4,1.1-6.7c0-1.4,0-2.8,0-4.1c0-3.4,0-6.8,0.9-10.2c-0.1,0.1-0.2,0.1-0.3,0.1
			c-2.8,2-5.9,3.3-9.2,4c-3.5,0.7-6.9,1-10.4,0.7c-3.3-0.2-6.5-0.9-9.6-2.4c-1.4-0.7-2.8-1.5-4.2-2.2c-0.3-0.2-0.6-0.4-0.9-0.7
			c-0.7-0.7-0.5-1.8,0.4-2.2c0.3-0.1,0.6-0.2,0.9-0.3c2-0.4,3.7-1.4,5.2-2.8c1.5-1.4,2.8-2.9,3.9-4.6c0.9-1.6,1.8-3.2,2.7-4.8
			c1.2-2.3,2.6-4.5,4.2-6.6c1.2-1.5,2.5-2.9,4-4.1c0.1-0.1,0.2-0.2,0.4-0.3c-0.3,0-0.5,0-0.7,0c-3.4,0-6.7-0.4-10.1-1.1
			c-4-0.8-7.6-2.7-10.8-5.2c-3.1-2.4-5.8-5.2-8.3-8.3c-0.3-0.3-0.5-0.7-0.7-1c-0.6-1.1,0.1-2.1,1.2-2.1c0.3,0,0.5,0,0.8,0
			c2.2,0.3,4.4-0.2,6.5-0.9c2.6-1,5-2.3,7.3-3.7c1.7-1,3.4-2.1,5.1-3.1c1.9-1.1,3.9-2,6-2.6c0.5-0.1,1.1-0.2,1.7-0.4
			c-0.3-0.1-0.4-0.2-0.6-0.3c-4.4-2.6-8.3-5.8-11.6-9.7c-3.5-4.1-6-8.7-7.5-13.8c-0.7-2.4-1-4.9-0.7-7.5c0-0.3,0-0.7,0.1-1
			c0.1-0.6,0.4-1.1,1-1.2c0.6-0.1,1,0.1,1.3,0.6c0.1,0.2,0.2,0.4,0.3,0.5c1,1.7,2.2,3.1,3.6,4.4c1.7,1.6,3.7,2.4,6,2.9
			c1.9,0.4,3.9,0.6,5.8,0.6c2.5,0,5,0,7.5,0.1c2.2,0,4.4,0.1,6.5,0.7c0.8,0.2,1.6,0.5,2.4,0.8c0.1,0,0.3,0.1,0.5,0.2
			c-0.1-0.2-0.1-0.3-0.1-0.4c-1.6-3.3-2.6-6.8-3.3-10.4c-0.5-2.5-0.9-5-1.1-7.6c-0.2-2.5-0.2-5.1,0.1-7.6c0.3-2.3,0.6-4.5,1.3-6.7
			c0.6-1.9,1.3-3.7,1.9-5.5c0.2-0.6,0.7-0.9,1.2-0.8c0.6,0.1,1,0.5,1,1.1c0.1,0.8,0.2,1.7,0.4,2.5c0.7,3.2,2.4,5.8,4.9,7.9
			c1.5,1.2,3.1,2.2,4.8,3.1c1.8,0.9,3.5,1.9,5.3,2.8c2.7,1.4,4.9,3.4,6.6,5.9C141.4,97.9,141.5,98,141.6,98.2z M136.6,167.4
			c0,0,0.1,0,0.1,0c0-0.2,0.1-0.4,0.1-0.6c-0.2-1.1-0.6-2-1.7-2.5c-1.1-0.5-2.1-0.3-3,0.4c-0.8,0.7-1.3,1.5-1.6,2.5
			c-0.8,2.7-0.5,5.3,0.8,7.9c0.7,1.5,1.7,2.9,2.8,4.2c0.2,0.2,0.4,0.5,0.7,0.7c1.3,1,2.6,1.9,4,2.6c5.2,2.9,10.8,4.7,16.8,5.4
			c2,0.2,3.9,0.3,5.9-0.1c2.7-0.5,5-1.6,7.1-3.3c0.8-0.6,1.5-1.3,2.2-2c2.3-2.3,4-5,5.2-8.1c0.7-1.7,1.1-3.5,1.4-5.3
			c0.5-2.6-0.2-4.8-2-6.7c-0.7-0.7-1.5-1.2-2.5-1.5c-1.1-0.3-2,0.1-2.6,1c-0.6,1.2-0.6,2.4,0,3.5c0.1,0.1,0.1,0.2,0.2,0.3
			c0-0.4,0-0.7,0.1-1c0.2-1.2,1.3-1.9,2.5-1.7c1.5,0.3,2.4,2.1,2.2,3.5c-0.2,1.7-1.9,2.6-3.4,2.4c-1.9-0.3-3.2-1.4-4-3.1
			c-0.2-0.4-0.3-0.8-0.4-1.3c-0.8-3.5,2.1-6.8,5.7-6.4c1.4,0.1,2.6,0.7,3.7,1.6c0.1,0.1,0.2,0.3,0.4,0.3c0-0.1,0-0.1,0-0.2
			c-0.5-2.8-1.4-5.5-2.6-8.1c-0.6-1.2-1.3-2.4-2.2-3.4c-2.2-2.6-5-4.1-8.6-4c-1.4,0-2.7,0.5-3.8,1.4c-1.3,1-1.9,2.4-1.6,4
			c0.3,1.7,1.3,2.9,3,3.6c0.5,0.2,1,0.2,1.6,0c-0.6-0.3-1.1-0.7-1.4-1.2c-0.4-0.7-0.6-1.4-0.7-2.2c0-0.8,0.2-1.4,0.6-2.1
			c1.3-1.7,3.7-1.9,5.3-0.4c0.9,0.9,1.4,1.9,1.5,3.2c0.1,1.4-0.4,2.7-1.2,3.8c-1.2,1.8-3,2.7-5.2,2.6c-2.1-0.1-3.9-0.9-5.3-2.5
			c-1-1.1-1.7-2.4-2.2-3.9c-0.5-1.3-0.5-2.7-0.2-4.1c1.4-6.7,8.5-9.4,13.5-6.8c0.1,0.1,0.3,0.1,0.4,0.2c-0.1-0.1-0.2-0.2-0.3-0.3
			c-1-0.8-2-1.7-3.1-2.4c-2.4-1.7-4.8-3.4-7.2-5.1c-1.1-0.8-2.2-1.6-3.2-2.5c-1.9-1.7-3.3-3.7-4.1-6.2c-0.4-1.3-0.6-2.5-0.4-3.9
			c0.4-2.8,1.8-5,4.3-6.6c0.1-0.1,0.2-0.2,0.4-0.3c-4,0.2-7.6,1.2-11.3,2.6c0.2,0.1,0.2,0.2,0.3,0.2c1.6,0.9,2.6,2.3,3.2,4
			c0.4,1.5,0.1,2.8-0.8,4c-0.6,0.7-1.3,1.1-2.2,1.1c-1.3,0-2.5-0.6-3.2-1.7c-0.4-0.6-0.5-1.2-0.4-1.9c0.2-1.4,1.3-2.3,2.6-2
			c0.5,0.1,1,0.4,1.4,0.7c0.1,0.1,0.2,0.2,0.3,0.3c0-0.1,0-0.2,0-0.3c-0.6-1.1-2-1.9-3.2-1.7c-1.6,0.2-2.6,1.4-3,2.9
			c-0.3,1.2,0.1,2.3,0.7,3.3c0.5,0.8,1.1,1.5,1.8,2c1.1,0.8,2.2,1.7,3.3,2.5c2.3,1.7,4.1,3.7,5.2,6.3c0.4,0.9,0.8,1.8,1.1,2.7
			c1.2,3.5,1.2,7-0.1,10.5c-1.7,4.6-4.9,7.7-9.6,9c-0.1,0-0.2,0.1-0.4,0.1c0.3,0.1,0.4,0.1,0.6,0.2c2.2,0.5,4.4,0.7,6.6,0.7
			c2.1,0.1,4.2,0,6.3,0.1c2.2,0.1,4.4,0.6,6.4,1.5c3.4,1.5,5.6,4.1,6.6,7.8c0.4,1.7,0.6,3.5,0.5,5.3c-0.1,2.5-0.8,4.8-2.1,7
			c-2.5,4.2-6.3,6-11.1,5.6c-3.2-0.2-6.1-1.5-8.5-3.5c-2.5-2.1-4.1-4.7-4.4-8c-0.2-2.6,0.4-4.9,2.1-6.9c1.3-1.5,2.9-2.3,4.9-2.4
			c3.4-0.1,5.8,2.3,6.6,5.2c0.4,1.4,0.2,2.8-0.4,4.2c-0.3,0.8-0.9,1.4-1.6,1.8c-1.5,0.8-3.1,0.4-4-1.1c-0.7-1.1-0.7-2.3-0.3-3.5
			c0.4-1.2,1.5-1.9,2.7-1.8c0.1,0,0.3,0,0.4,0c-0.7-1.7-3.1-2.2-4.5-1c-1.1,1-1.6,2.2-1.5,3.7c0.2,3,2.7,5.9,5.6,6.6
			c1.2,0.3,2.3,0.4,3.5,0.3c1.1-0.1,2.2-0.3,3.2-0.9c4-2.4,5.8-8,2.8-12.7c-0.2-0.3-0.4-0.5-0.7-0.7c-0.7-0.6-1.6-1.1-2.5-1.5
			c-1.9-0.8-3.9-1.2-5.9-1.4c-2.4-0.2-4.8-0.4-7.2-0.6c-2.7-0.2-5.4-0.7-8-1.4c-2.8-0.8-5.3-2-7.7-3.6c-3.3-2.2-5.5-5.4-7-8.9
			c-0.5-1.1-0.9-2.3-1.1-3.6c-0.1-0.4-0.1-0.9-0.2-1.3c-0.1,0.1-0.1,0.1-0.1,0.2c-0.2,0.9-0.5,1.8-0.7,2.8c-0.5,3.3-0.5,6.5,0.1,9.8
			c1,5.9,3.3,11.3,6.5,16.4c0,0.1,0.1,0.1,0.2,0.2c-0.2-2.2-0.2-2.7,0.1-4c0.4-2,1.3-3.7,2.7-5.1c1-1,2.2-1.5,3.6-1.6
			c3.8-0.2,6.6,3.5,6.1,6.8c-0.3,1.8-1.3,3.1-3.1,3.7c-1.7,0.6-3.6-0.4-4.1-2.1c-0.3-1.2,0.2-2.4,1.3-2.8c1.2-0.5,2.4,0,3,1.1
			C136.5,167.3,136.5,167.4,136.6,167.4z M165.4,113.5c0.1,0.1,0.1,0.2,0.1,0.2c0.5,0.8,1,1.6,1.4,2.4c1,2,1.3,4.1,0.8,6.2
			c-0.6,2.5-2.5,4.4-5.3,4.8c-2.8,0.4-5.9-1.8-6.5-4.9c-0.5-2.6,1.1-4.9,3.6-5.4c2.5-0.5,4.5,1.6,3.9,4c-0.4,1.6-1.9,2.9-3.5,2.7
			c-0.1,0-0.1,0-0.3,0c0.5,0.5,1,0.7,1.5,0.7c1.5,0.1,2.8-0.7,3.3-2c0.5-1.1,0.7-2.3,0.5-3.6c-0.2-1.4-0.7-2.7-1.8-3.7
			c-1.4-1.1-2.9-1.5-4.7-1c-0.8,0.3-1.5,0.6-2.2,1.1c-2.5,1.5-3,4.4-2.5,6.5c0.5,1.8,1.5,3.3,2.7,4.7c1.6,1.6,3.3,3,5.2,4.2
			c1.6,1,3.3,1.9,4.9,2.9c2.1,1.3,4.1,2.7,5.9,4.5c1.5,1.6,2.9,3.3,4.2,5c1.7,2.2,2.9,4.6,3.8,7.3c0.2,0.5,0.3,1,0.5,1.6
			c0.3-0.5,0.5-1,0.8-1.4c1.3-2.3,3.3-3.8,5.8-4.5c3.1-0.8,5.7-0.2,7.8,2.4c0,0.1,0.1,0.1,0.2,0.2c0-0.2,0-0.3,0-0.4
			c-0.2-2.6-0.7-5.2-1.5-7.8c-2-5.8-5.2-10.9-9.4-15.4c-0.1-0.1-0.1-0.1-0.3-0.2c0,0.2,0,0.4,0,0.6c-0.1,0.9-0.1,1.8-0.2,2.6
			c-0.2,1.5-0.6,2.8-1.2,4.2c-0.5,1.2-0.9,2.5-1.3,3.7c-0.3,0.8-0.4,1.7-0.3,2.6c0.1,1.3,0.7,2.4,1.8,3.1c0.8,0.5,1.7,0.7,2.5,0.3
			c0.6-0.3,0.9-0.8,0.9-1.5c-0.1,0-0.2,0.1-0.4,0.1c-0.6,0.2-1.2,0.1-1.7-0.2c-0.7-0.4-1.1-1-1.4-1.7c-0.5-1.6,0.1-3.5,1.4-4.5
			c1.1-0.8,2.2-0.8,3.4-0.2c0.9,0.5,1.5,1.3,1.9,2.2c0.8,2.2,0.5,5.3-1.7,7.2c-3,2.7-7.7,1.8-9.1-2.3c-0.3-0.8-0.4-1.6-0.4-2.5
			c-0.1-1.6,0.3-3.1,0.8-4.6c0.1-0.2,0.1-0.4,0.2-0.6c-0.2,0.1-0.3,0.2-0.4,0.3c-1.3,1-2.7,1.7-4.3,1.8c-1.4,0.1-2.7-0.2-3.7-1
			c-2-1.6-2.8-3.7-2.3-6.2c0.5-2.5,2.7-4.2,5.2-4c1.8,0.1,3.3,1.4,3.7,3.1c0.4,1.7-0.7,3.5-2.4,3.9c-1.6,0.4-3.2-0.7-3.5-2.4
			c0-0.2-0.1-0.4-0.1-0.7c-0.3,0.8-0.4,1.6-0.3,2.4c0.2,1.5,1.4,2.6,2.8,2.8c0.8,0.1,1.5-0.2,2.2-0.6c1.2-0.8,1.9-1.8,2.4-3.1
			c0.6-1.6,0.8-3.3,0.5-5c-0.3-1.8-0.9-3.4-2.1-4.8c-1-1.1-2.1-1.9-3.4-2.6c-2.6-1.4-5.4-2.3-8.2-3
			C165.7,113.5,165.6,113.5,165.4,113.5z M189.3,175.6c0.1,0.1,0.2,0.1,0.2,0.2c3,1.8,6,3.4,9.4,4.3c3.4,0.9,6.8,1.9,10.1,2.9
			c4.1,1.2,8.1,2.7,11.9,4.6c1.7,0.9,3.5,1.7,5,2.9c0.1,0.1,0.2,0.1,0.3,0.1c-0.1-0.4-0.3-0.8-0.5-1.1c-2.1-3.4-4.5-6.5-7.2-9.3
			c-6.2-6.3-13.4-11.1-21.5-14.6c-0.6-0.3-1.2-0.5-1.9-0.8C193.5,168.6,191.5,172.1,189.3,175.6z M141.9,113.4
			c-0.2-0.3-0.3-0.5-0.5-0.7c-1.6-2.7-3.6-5.1-5.7-7.4c-2-2.1-4.1-4-6.3-5.9c-2.3-2-4.5-4.1-6.4-6.5c-1.9-2.2-3.4-4.6-4.5-7.3
			c-0.1-0.2-0.1-0.3-0.2-0.5c-0.1,0.2-0.1,0.5-0.1,0.7c-0.1,4,0.3,8,1.4,11.9c2.4,7.9,6.4,15,11.8,21.2c0.2,0.2,0.4,0.4,0.7,0.7
			C135.1,117.1,138.4,115.1,141.9,113.4z M180.2,117.6c0.2-0.2,0.3-0.3,0.4-0.5c0.8-1.1,1.6-2.1,2.3-3.2c2-3.1,3.6-6.5,4.9-10
			c1.1-2.8,2.1-5.6,3.1-8.4c1.6-4.3,3.6-8.3,6.4-11.9c0,0,0.1-0.1,0.1-0.3c-2,0.9-3.7,2.1-5.4,3.3c-5.5,3.7-9.9,8.4-13.7,13.7
			c-2.8,3.9-4.8,8.2-6.5,12.7C174.8,114.2,177.6,115.7,180.2,117.6z M132.3,141.8c0-0.1,0.1-0.1,0.1-0.1c0-0.1,0-0.2,0.1-0.3
			c0.1-1.1,0.7-2,1.5-2.7c1.3-1.2,3.1-1.5,4.5-0.8c2,1,3.3,3.5,2.7,5.7c-0.8,3.3-4.6,4.8-7,4.1c-2.1-0.6-3.6-2-4.6-4
			c-1.5-3.3-1.5-6.5,0.3-9.7c1.8-3.1,4.5-4.9,8.1-5.4c0.5-0.1,1.1-0.1,1.7-0.2c-0.2-0.2-0.3-0.3-0.4-0.4c-0.7-0.7-1.4-1.5-1.9-2.3
			c-1-1.6-1.6-3.2-1.5-5.1c0-0.3,0-0.6,0.1-0.9c-0.2,0.1-0.3,0.2-0.4,0.2c-4.1,2.9-7.1,6.7-9.3,11.2c-1,2-1.5,4.2-1.2,6.5
			c0.4,3.5,1.6,6.6,3.5,9.5c1.5,2.2,3.5,3.8,6.1,4.8c1.2,0.5,2.5,0.6,3.8,0.5c1.5-0.2,2.7-0.9,3.7-1.9c3-2.9,4.3-7.9,3-11.9
			c-0.8-2.4-2.3-4.2-4.8-4.9c-3.3-1-6.8,0.7-8,3.9C131.7,138.9,131.7,140.3,132.3,141.8z M120.4,164.4c-0.9,0.6-1.7,1.3-2.6,1.9
			c-2.7,1.9-5.3,4-7.7,6.2c-1.9,1.8-3.7,3.6-5.6,5.5c-2.5,2.6-5,5.1-7.7,7.5c-1.6,1.5-3.4,2.8-5.4,3.8c-0.1,0-0.1,0.1-0.2,0.2
			c0.2,0,0.2,0,0.3,0c2.3,0.2,4.6,0.1,6.9-0.2c2.7-0.4,5.4-1.2,7.8-2.5c2.4-1.3,4.7-2.7,6.7-4.3c1.2-1,2.4-2,3.6-3.1
			c2.6-2.3,5.2-4.5,8.1-6.5c0,0,0.1-0.1,0.1-0.2C123.1,170.1,121.6,167.3,120.4,164.4z M152.1,110.5c3.2-0.5,6.4-0.3,9.5,0
			c0-0.1,0.1-0.2,0.1-0.2c0.1-3-0.1-6.1-0.5-9.1c-0.3-2.1-0.8-4.1-1.3-6.1c-1.3-4.8-2.5-9.6-3-14.5c-0.3-2.6-0.4-5.1-0.1-7.7
			c0-0.1,0-0.3,0-0.4c-0.2,0.2-0.4,0.4-0.5,0.6c-2,3.3-3.3,6.9-4.2,10.7c-0.8,3.7-1.2,7.4-1.4,11.1c-0.2,4.5,0,9,0.6,13.5
			C151.6,109.1,151.7,109.8,152.1,110.5z M156.8,228.7C156.8,228.7,156.9,228.7,156.8,228.7c0.2-0.3,0.4-0.5,0.6-0.8
			c1.4-1.8,2.3-3.8,3.2-5.9c2.1-5.3,3.4-10.7,3.8-16.4c0.3-5,0-9.9-0.5-14.8c0-0.2-0.1-0.3-0.1-0.5c-0.1,0-0.2,0-0.3,0
			c-2.2,0.2-4.3,0.4-6.5,0.2c-1.2-0.1-2.3-0.3-3.5-0.4c-0.4-0.1-0.5,0-0.5,0.4c0,0.5,0,0.9,0,1.4c0,1.7,0.1,3.4,0.4,5.1
			c0.3,1.9,0.8,3.7,1.4,5.6c1.3,4.4,2.4,8.9,2.8,13.6c0.3,3.6,0.1,7.2-0.5,10.8C157.1,227.5,156.9,228.1,156.8,228.7z M197.9,154.8
			c0.6,0.1,1.1,0.2,1.6,0.2c3,0.3,6.1,0.5,9.1,0.2c2-0.2,4-0.4,5.9-0.8c2.1-0.5,4.2-1.1,6.3-1.7c2.6-0.7,5.3-1.4,8-1.7
			c2.4-0.3,4.9-0.5,7.3-0.3c0.2,0,0.4,0,0.7,0c-0.1-0.1-0.1-0.2-0.1-0.2c-0.2-0.1-0.3-0.3-0.5-0.4c-2.1-1.4-4.3-2.6-6.8-3.3
			c-3.3-0.9-6.7-1.3-10.1-1.4c-3,0-6,0.1-9,0.4c-1.8,0.1-3.7,0.4-5.5,0.6c-1.8,0.2-3.7,0.5-5.5,0.8c-0.4,0.1-0.8,0.1-1.3,0.1
			C198.2,149.8,198.1,152.3,197.9,154.8z M139.8,185.8c-2.1-1-4-2.1-5.8-3.5c-0.1,0.2-0.2,0.3-0.3,0.4c-0.8,1.3-1.5,2.7-2.2,4.2
			c-1,2.4-1.8,4.8-2.5,7.3c-1.5,4.9-3.3,9.8-5.3,14.5c-1.5,3.6-3.5,6.9-6.4,9.7c-0.1,0.1-0.1,0.2-0.2,0.3c0.1,0,0.2,0,0.3,0
			c2.2-0.3,4.2-1.2,6.1-2.4c1.6-1,3.1-2.3,4.2-3.7c1-1.3,2-2.5,2.9-3.9c3.1-4.7,5.5-9.8,7.3-15.2C138.8,191,139.4,188.4,139.8,185.8
			z M175.5,187.1c0.1,0.1,0.1,0.2,0.2,0.3c0.5,0.8,1,1.6,1.4,2.4c1.7,3.1,3.8,5.9,6.5,8.3c3.2,2.9,6.2,6.1,8.9,9.6
			c1.7,2.2,3.2,4.5,4.3,7c0,0.1,0.1,0.1,0.2,0.2c0-0.2,0-0.4,0-0.5c-0.2-1.3-0.4-2.7-0.7-4c-0.8-4-1.8-7.9-3.1-11.7
			c-1.2-3.5-3-6.8-5.4-9.6c-1.4-1.7-3-3.1-4.6-4.5c-0.4-0.4-0.8-0.7-1.3-1.1C179.9,185,177.7,186.1,175.5,187.1z M194.1,133.9
			c0.1,0,0.2,0,0.2-0.1c2.9-1.1,5.5-2.5,8-4.2c2.4-1.7,4.6-3.5,6.7-5.6c1.1-1.1,2.2-2.2,3.4-3.2c2.3-2.2,4.8-4.2,7.6-5.9
			c0.1,0,0.1-0.1,0.2-0.1c-0.2,0-0.4,0-0.5,0c-0.8,0.2-1.5,0.3-2.3,0.5c-4.3,0.9-8.5,1.9-12.6,3.4c-2.9,1.1-5.8,2.1-8.5,3.6
			c-2.3,1.3-4.5,2.6-6.8,4c0,0-0.1,0.1-0.1,0.1C191.3,128.8,192.8,131.3,194.1,133.9z M88.3,111.5C88.3,111.5,88.3,111.5,88.3,111.5
			c0.1,0.3,0.2,0.4,0.3,0.6c1.7,2.4,3.6,4.5,5.8,6.5c1.8,1.7,3.8,3.3,5.8,4.8c6,4.7,12.4,8.6,19.5,11.3c0.1,0,0.3,0.1,0.4,0.1
			c1.1-2.6,2.2-5.1,4-7.4c-1.6-0.7-3.1-1.4-4.6-1.9c-4.3-1.5-8.5-3-12.8-4.4c-3.3-1.1-6.6-2.3-9.7-3.9C93.9,115.8,91,114,88.3,111.5
			C88.4,111.5,88.4,111.5,88.3,111.5z M190.4,160.5C190.5,160.6,190.5,160.6,190.4,160.5c0.2,0,0.4,0,0.6-0.1
			c1.1-0.5,1.9-1.4,2.4-2.5c0.5-1.3,0.8-2.6,0.6-4c-0.1-1.4-0.5-2.7-1.4-3.9c-0.8-1.1-2-1.6-3.4-1.3c-1.3,0.2-2.4,1-3.2,2
			c-0.8,0.9-1.3,2-1.8,3.2c-0.8,1.9-1,3.9-1.2,6c-0.2,2.4-0.3,4.9-0.4,7.3c-0.1,2.3-0.5,4.6-1.1,6.8c-0.9,3.4-2.2,6.7-4.4,9.6
			c0,0.1-0.1,0.1-0.1,0.2c0,0,0.1,0,0.1,0c0.1,0,0.2-0.1,0.2-0.1c2.6-1.4,4.8-3.1,6.8-5.2c1.6-1.8,3-3.8,4.2-5.9
			c1.9-3.1,3.6-6.3,5-9.6c0.1-0.2,0.2-0.4,0.2-0.6c-0.1,0-0.1,0-0.1,0c-0.1,0.1-0.3,0.2-0.4,0.3c-0.8,0.6-1.8,1-2.8,1
			c-2.1,0.1-3.8-0.6-4.9-2.4c-1.4-2.2-0.8-4.7,0.7-6.5c0.3-0.3,0.6-0.6,1-0.8c1-0.5,2-0.6,3,0c2.3,1.3,2.8,4.5,0.6,6.3
			C190.6,160.4,190.5,160.5,190.4,160.5z M84.6,151.6c0.1,0.1,0.1,0.1,0.1,0.1c0.1,0.1,0.3,0.1,0.4,0.2c4,1.8,8.3,2.7,12.7,3.3
			c1.9,0.3,3.9,0.5,5.9,0.6c1.9,0.1,3.9,0.2,5.8,0.1c2.7-0.1,5.3-0.4,8-0.6c0.1,0,0.2,0,0.3-0.1c-0.4-2.6-0.6-5.1-0.4-7.7
			c-0.5,0-0.9,0.1-1.3,0.1c-4,0.2-8,0.8-11.9,1.6c-3.6,0.7-7.3,1.5-11,1.9c-2.1,0.2-4.3,0.5-6.5,0.5C86,151.6,85.3,151.6,84.6,151.6
			z M130.3,184.1c-0.2,0.1-0.3,0.1-0.4,0.1c-0.8,0.3-1.7,0.5-2.6,0.6c-1.9,0.2-3.7-0.8-4.5-2.6c-0.6-1.3-0.7-2.7-0.4-4.1
			c0.1-0.2,0.1-0.4,0.1-0.6c0,0-0.1,0-0.1-0.1c-1.7,1.5-3.4,2.9-5.1,4.3c0.5,1.9,1.4,3.5,2.7,5c0.6-0.2,1.1-0.1,1.5,0.4
			c0.4,0.4,0.4,1,0.3,1.5c1,0.8,4.7,2.6,5.8,2.7C128.3,188.9,129.1,186.5,130.3,184.1z M113.4,145.5c-1.8-1.5-2.6-3.4-2.1-5.7
			c0.5-2.3,2.2-3.5,4.4-4.1c-1.9-0.9-3.8-1.9-5.7-2.8c-0.6,1.1-1.5,2-2,3.3c0.5,0.3,0.9,0.6,1.4,0.8c0.5,0.3,0.7,0.8,0.7,1.4
			c0,0.6-0.6,1.1-1.3,1c-0.3,0-0.5-0.1-0.8-0.2c0,2.4,0.4,4.6,1.3,6.7C110.6,145.8,112,145.6,113.4,145.5z M101,147.4
			c-1.1-2.5-1-5-1.1-7.6c-0.2,0.1-0.4,0.2-0.6,0.2c-1.7,0.8-3.3,1.8-4.9,2.7c-0.5,0.3-0.6,0.6-0.6,1.1c0,0.1,0,0.2,0,0.3
			c0,0.7,0.1,1.5,0.1,2.2c0,0.7,0.1,1.4,0.2,2.1C96.5,148.4,98.7,147.8,101,147.4z M126.9,193.3c-2.1-0.7-4-1.4-5.8-2.6
			c-0.1,0.3-0.2,0.5-0.2,0.8c-0.5,1.9-0.7,3.8-0.8,5.7c0,1-0.2,0.7,0.7,1.3c1.1,0.9,2.4,1.5,3.8,2
			C125.3,198.1,126.1,195.7,126.9,193.3z M177.6,195c-0.7-1.1-1.4-2.3-2.1-3.4c-0.1,0.2-0.2,0.4-0.2,0.5c-0.6,1.4-1.5,2.5-2.9,3.2
			c-1.4,0.7-2.8,0.7-4.1-0.2c-0.5-0.4-0.9-0.9-1.4-1.3c-0.1-0.1-0.2-0.2-0.3-0.3c0.1,1.7,0.2,3.4,0.3,5.1c1.3,0.3,2.6,0.6,4,0.6
			c0.1-0.2,0.1-0.4,0.2-0.6c0.4-0.8,1.3-1.1,2.1-0.6c0.3,0.2,0.5,0.4,0.7,0.7c0.1,0.1,0.2,0.3,0.3,0.4
			C175.8,198.2,176.9,196.8,177.6,195z M184.8,115.4c0.7-0.2,1.3-0.4,1.9-0.6c2.1-0.4,3.8,0.5,4.6,2.5c0.1,0.2,0.2,0.5,0.2,0.8
			c0.3,1.3,0.2,2.7-0.2,4c0,0.2-0.1,0.4-0.2,0.6c1.4-0.8,2.7-1.6,4-2.4c-0.4-2.1-0.8-4.2-1.8-6.1c-0.6,0.2-1.1,0.3-1.6-0.1
			c-0.5-0.4-0.6-0.9-0.6-1.5c-0.6-0.4-1.2-0.6-1.9-0.7c-0.7,0-1.5-0.1-2.2-0.1c-0.3,0-0.4,0.1-0.6,0.4c-0.6,1-1.1,1.9-1.7,2.9
			C184.9,115.2,184.8,115.3,184.8,115.4z M141.7,108.8c0-0.3,0.1-0.6,0.1-0.8c0.1-0.8,0.4-1.6,0.8-2.2c0.9-1.3,2.5-1.8,4-1.2
			c0.7,0.3,1.3,0.6,1.8,1.1c0.1,0.1,0.2,0.2,0.3,0.3c0-0.1,0.1-0.1,0.1-0.1c-0.1-1.4-0.2-2.8-0.3-4.3c0-0.2-0.1-0.3-0.3-0.4
			c-0.8-0.5-1.7-0.8-2.7-1c-0.5-0.1-1.1,0-1.7,0c0,0.4,0,0.8-0.1,1.2c0,0.3,0,0.6-0.1,0.8c-0.3,0.9-1.3,1.2-2,0.5
			c-0.2-0.2-0.4-0.6-0.6-0.8c-0.1-0.1-0.2-0.3-0.3-0.4c-0.9,0.7-1.6,2.6-1.7,3.8c0,0.1,0.1,0.3,0.2,0.5c0.3,0.4,0.7,0.8,1,1.2
			C140.7,107.5,141.1,108.1,141.7,108.8z M209.3,110c-2.4,0.1-4.8,0.5-7.1,1.1c1,1.7,1.7,3.5,2.1,5.4c2.2-0.7,4.3-1.3,6.5-2
			C210.2,113,210,111.4,209.3,110z M107.6,146.2c-1.2-2.4-1.5-4.9-1.5-7.5c-1.4-0.3-2.8-0.1-4.2,0.4c0,2.7,0,5.4,0.7,8
			C104.3,146.8,105.9,146.5,107.6,146.2z M207.5,168.4c1.9,1.3,3.7,2.6,5.6,3.8c0.8-1,2-4,2-5c-1.8-1.3-3.6-2.4-5.6-3.4
			C209,165.4,208.5,167,207.5,168.4z M207.1,160c-0.2-0.8-0.6-1.4-1-2.1c-0.1-0.2-0.2-0.2-0.4-0.2c-1,0-2.1-0.1-3.1-0.1
			c-0.1,0-0.2,0-0.3,0c0.1,0.2,0.2,0.3,0.3,0.5c0.3,0.6,0.7,1.2,0.9,1.9c0.7,1.9-0.3,4-1.9,4.7c-0.1,0.1-0.3,0.1-0.5,0.2
			c1.7,0.9,3.3,1.7,4.9,2.6c1.1-2.2,1.7-3.9,1.8-4.6c-0.2-0.1-0.3-0.2-0.5-0.3C206.2,161.8,206.1,160.9,207.1,160z M222,173.6
			c-0.7-1.2-4.3-4.6-5.1-4.9c-0.3,0.8-0.5,1.7-0.9,2.5c-0.3,0.8-0.8,1.6-1.2,2.5c1.6,1.4,3.2,2.9,4.9,4.4c0.2-0.4,0.4-0.7,0.6-1.1
			C220.9,175.9,221.5,174.8,222,173.6z M131.9,180.7c-2-1.7-3.8-3.4-5.4-5.4c-0.2,0.3-0.4,0.5-0.6,0.7c-0.7,0.8-1.2,1.7-1.4,2.8
			c-0.2,0.9-0.1,1.8,0.3,2.7c0.4,0.8,1.1,1.3,2,1.3c1.3,0,2.5-0.3,3.6-0.9C131,181.6,131.5,181.2,131.9,180.7z M228.2,189
			c-0.6-4.9-1.9-9.5-4.8-13.6c-0.6,1.5-1.3,3-2.4,4.1C223.8,182.5,226.2,185.6,228.2,189z M195.5,113.4c1,1.9,1.5,3.9,1.8,5.9
			c1.8-0.7,3.5-1.4,5.2-2.1c-0.7-1.9-1.4-3.7-2.1-5.6C198.6,112,197,112.6,195.5,113.4z M182.7,119.5c1.9,1.6,3.5,3.3,5.2,5
			c0.2-0.3,0.3-0.5,0.5-0.8c0.7-1.1,1.1-2.2,1.2-3.5c0.1-0.6,0-1.2-0.1-1.8c-0.3-1.3-1.2-2-2.6-1.7
			C185.2,117.1,183.9,118.2,182.7,119.5z M180.7,205.9c2,1.4,4.1,2.6,6.2,3.8c0.8-0.9,1.3-1.9,1.8-2.9c-1.4-1.9-3.1-3.5-4.8-5.1
			c-0.5,0.8-0.9,1.5-1.3,2.3C182.1,204.7,181.5,205.3,180.7,205.9z M119.1,138.2c-1.6-0.7-3.1-0.5-4.5,0.3c-2.1,1.3-1.7,4.1-0.3,5.3
			c0.9,0.8,2.1,1,3.3,1.1C118,142.7,118.4,140.4,119.1,138.2z M179.1,204.8c0.3-0.2,0.5-0.4,0.7-0.6c1.2-1.1,1.8-2.6,2.6-4
			c-0.6-0.6-1.2-1.1-1.7-1.6c-0.6-0.6-1.1-1.1-1.7-1.8c-0.9,1.8-2.1,3.1-3.8,4.1C176.2,202.4,177.6,203.6,179.1,204.8z M100.2,130.6
			c2.2,1.7,4.3,3.3,6.6,4.8c0.3-1.3,1-2.3,1.7-3.3c-2.3-1.5-4.6-3-6.8-4.5C101.2,128.5,100.7,129.5,100.2,130.6z M118.4,187.8
			c-1.3-1.4-2.1-2.9-2.6-4.6c-1.4,1.1-2.8,2.1-4.2,3.2c0.4,1.7,1.4,3.1,2.1,4.6C115.5,190.2,117,189.1,118.4,187.8z M104.7,193.2
			c1.4,0.1,6.3-1,7-1.5c-0.4-0.7-0.8-1.4-1.1-2.1c-0.3-0.7-0.6-1.4-0.9-2.2c-1.9,1.2-3.9,2.2-5.9,3
			C104.1,191.4,104.4,192.3,104.7,193.2z M166.9,189.8c0.4,0.8,0.7,1.4,1.1,2.1c0.1,0.2,0.2,0.4,0.3,0.5c0.2,0.3,0.5,0.6,0.8,0.8
			c0.8,0.7,1.6,0.8,2.5,0.2c1.1-0.7,1.8-1.8,2-3.1c0.1-0.7,0.1-1.4,0.2-2.1c0-0.1,0-0.3-0.1-0.5
			C171.6,188.6,169.3,189.3,166.9,189.8z M149.3,111c-0.4-1.3-1-2.4-1.8-3.4c-0.5-0.5-1-1-1.7-1.2c-0.7-0.3-1.4-0.1-1.8,0.5
			c-0.2,0.4-0.4,0.8-0.5,1.2c-0.2,0.7-0.1,1.4,0,2.1c0.1,0.8,0.3,1.6,0.6,2.3C145.8,112,147.5,111.5,149.3,111z M91.8,144.6
			c-1.7,0.9-3.3,1.7-5,2.6c-1.7,0.8-3.4,1.4-5.2,1.9c3.7,0.7,7.4,0.2,11-0.2C91.8,147.5,92,146,91.8,144.6z M133.6,99.9
			c1.3,1.3,2.6,2.5,4,3.8c0.3-1.6,1-3,2.2-4.1c-0.8-1.3-1.8-2.4-2.9-3.4C135.4,97.1,134.4,98.4,133.6,99.9z M135.2,94.9
			c-1.6-1-3.3-1.9-4.9-2.7c-0.8,0.8-1.6,1.6-2.2,2.6c0.4,0.6,3.7,3.6,4.2,3.8C132.9,97.1,133.8,95.9,135.2,94.9z M196.1,162.7
			c0.8,0.1,1.5,0.3,2.3,0.3c0.5,0.1,1,0.1,1.5,0c1.3-0.1,2-1.3,1.6-2.6c-0.3-0.8-0.7-1.5-1.3-2.1c-0.8-0.8-1.7-1-2.7-0.9
			C197.1,159.2,196.6,160.9,196.1,162.7z M195.3,97.3c-0.8-0.2-1.5-0.5-2.3-0.5c-0.8,2.2-1.6,4.3-2.4,6.5c1.4-0.1,2.7,0.2,3.9,0.7
			C195,101.8,195.2,99.6,195.3,97.3z M168.1,214.7c0.9-2.1,1.6-4.3,2.1-6.5c-1.2-0.2-2.4-0.3-3.5-0.5c-0.4,2.2-0.7,4.4-1.1,6.6
			c0.1,0,0.2,0.1,0.3,0.1C166.5,214.5,167.3,214.6,168.1,214.7z M192.1,110.7c0.8-1.5,1.5-3,1.9-4.6c-1.5-0.6-3.1-0.9-4.2-0.7
			c-0.6,1.5-1.3,2.9-1.9,4.5C189.4,109.8,190.8,109.9,192.1,110.7z M144.7,93.4c-0.3,1.6-0.6,3.1-0.7,4.8c1.6-0.2,3,0.2,4.4,0.9
			c0-1.9,0.1-3.7,0.1-5.5C147.3,93.4,146,93.3,144.7,93.4z M170.8,201.3c-1.4-0.1-2.6-0.3-3.9-0.8c0,1.9-0.1,3.8-0.1,5.7
			c1.2,0.1,2.5,0.2,3.7,0.3C170.7,204.6,170.8,203,170.8,201.3z M212.7,114c1.7-0.4,3.3-0.7,4.9-1.1c-0.1-1.1-0.4-2.5-0.7-3.1
			c-1.7,0-3.4,0-5.2,0C212.1,111.2,212.5,112.6,212.7,114z M123.8,202.3c-1.4-0.4-2.5-1.1-3.7-1.9c0,2.5-0.1,5-0.1,7.5
			c0.4,0.2,0.8,0.3,1.3,0.6C122.2,206.4,123,204.4,123.8,202.3z M100.4,126.5c-1.4-1.1-2.9-2.3-4.4-3.5c-0.5,0.8-1,1.6-1.5,2.3
			c1.4,1.4,2.8,2.8,4.4,4.1C99.4,128.5,99.9,127.5,100.4,126.5z M94.6,122c-2.9-2.5-5.6-5.2-7.8-8.4c0.3,2.3,4.8,9.4,6.6,10.7
			C93.8,123.5,94.2,122.8,94.6,122z M146.5,86.4c-0.6,1.7-1,3.4-1.4,5.2c1.2-0.2,2.4-0.1,3.6,0.1c0.2-1.7,0.4-3.4,0.6-5.2
			C148.4,86.3,147.4,86.4,146.5,86.4z M153.3,73.9c-1.8,1.6-5.9,8.7-6,10.5c0.4,0,0.8,0,1.2,0c0.4,0,0.8,0.1,1.1,0.1
			c0.5-1.9,1-3.7,1.5-5.5C151.6,77.3,152.5,75.6,153.3,73.9z M103.1,193.4c-0.4-0.8-0.7-1.6-1-2.4c-1.1,0.2-2.2,0.5-3.3,0.6
			c-1.1,0.2-2.2,0.3-3.3,0.3c-1.1,0.1-2.2,0-3.3,0C95.7,193.3,99.3,193.5,103.1,193.4z M128.5,91.2c-2.6-1.4-5.1-2.9-7.1-5
			c1.3,2.8,3.3,5.1,5.4,7.3C127.3,92.8,127.9,92,128.5,91.2z M214.5,156.9c-2.1,0.3-4,0.5-6,0.8c0.3,0.7,0.5,1.3,0.8,2
			c1.9-0.2,3.7-0.5,5.5-1.1C214.7,157.9,214.6,157.4,214.5,156.9z M190.1,208.6c-0.5,0.7-1,1.4-1.5,2c1.1,0.8,2.2,1.6,3.3,2.5
			c1.1,0.9,2,1.9,2.8,3C194.3,214.4,191.5,209.9,190.1,208.6z M165.1,216c-0.8,2.7-1.7,5.4-2.8,8c0,0,0,0.1,0,0.2
			c2-2.4,3.6-5,4.9-7.8C166.5,216.3,165.8,216.2,165.1,216z M219,110c0.2,0.9,0.4,1.7,0.6,2.4c2.2-0.3,4.4-0.7,6.7-1
			C223.8,110.6,221.4,110.2,219,110z M223.7,154.4c-2.5,0.6-4.9,1.4-7.4,2c0.2,0.5,0.3,0.9,0.4,1.4
			C219.2,156.8,221.5,155.7,223.7,154.4z M195.4,95.2c0.3-1.9,0.6-3.7,0.8-5.6c-1,1.7-1.8,3.5-2.5,5.3
			C194.3,95.1,194.8,95.1,195.4,95.2z M119.7,209.6c-0.3,1.2-0.7,2.4-1,3.5c0.8-1,1.4-2,1.9-3.1C120.3,209.8,120,209.7,119.7,209.6z
			"/>
	</g>
</g>
</svg>
