<?xml version="1.0" encoding="utf-8"?>
<!-- Generator: Adobe Illustrator 21.0.1, SVG Export Plug-In . SVG Version: 6.00 Build 0)  -->
<svg version="1.1" id="Calque_1" xmlns="http://www.w3.org/2000/svg" xmlns:xlink="http://www.w3.org/1999/xlink" x="0px" y="0px"
	 viewBox="0 0 432 432" style="enable-background:new 0 0 432 432;" xml:space="preserve">
<style type="text/css">
	.st0{fill:#838BC5;}
	.st1{fill:#BA9BC9;}
	.st2{fill:#C77C31;}
	.st3{fill:#8B5F3D;}
	.st4{fill:#FFCD05;}
	.st5{fill:#3DB54A;}
	.st6{fill:#010101;}
	.st7{fill:#C77C2F;}
	.st8{fill:#1072BA;}
	.st9{fill:#67C9D0;}
	.st10{fill:#29B574;}
	.st11{fill:#F37476;}
</style>
<g>
	<g>
		<path d="M213.6,228.8c0.5-0.4,0.9-0.7,1.3-1.1c2.1-2.2,3.5-4.8,4.8-7.4c2.6-5.3,4.6-10.8,6.6-16.3c1.2-3.4,2.3-6.8,3.5-10.1
			c0.4-1.2,0.5-2.3,0.4-3.6c-0.1-6.5-0.2-13-0.3-19.5c-0.1-3.8,0.3-7.5,1.4-11.1c0.3-0.9,0.7-1.9,1.1-2.8c0.2-0.4,0.5-0.8,0.8-1.2
			c1-1,2.4-0.9,3,0.3c0.5,0.9,0.8,1.8,1,2.8c1,4.8,1.4,9.6,1.4,14.5c0,5,0.1,10,0.3,15c0.1,4.3,0.3,8.7,0.6,13
			c0.3,4.5,0.9,9,1.3,13.5c0.2,2.1,0.4,4.2,0.6,6.3c0.2,1.7,0.4,3.4,0.7,5.1c0.1,0.6,0.3,1.1,0.6,1.9c0.6-0.5,1-0.7,1.4-1.1
			c1.1-1.1,1.7-2.5,2.3-4c1.8-4.3,2.7-8.9,3.3-13.5c0.1-0.9,0.2-1.7,0.4-2.6c0.4-2.2,0.4-4.4,0.2-6.7c-0.4-5,0.2-9.9,1.9-14.6
			c0.9-2.4,2.4-4.4,4.9-5.4c2.5-1.1,4.9-0.8,6.9,1c2.9,2.6,4.6,5.9,4.7,9.9c0.1,3.8-1.9,6.3-5.2,7.8c-1.3,0.6-2.8,0.9-4.4,1.4
			c-0.1,1,0,2.1,0.2,3.2c0.5,2.7,1.1,5.4,2.7,7.8c0.9,1.4,2,2.8,3.2,3.9c2.4,2.2,5.3,2,8.1,0.9c3.2-1.3,5.5-3.8,7.4-6.6
			c2.1-3.2,3.5-6.7,4.1-10.5c0.2-1,0.2-2.1,0.3-3.1c0.1-0.7-0.2-1.1-0.8-1.5c-2-1.2-3.8-2.7-5.4-4.4c-1.4-1.5-2.4-3.2-2.2-5.4
			c0.1-1.5,0.7-2.8,2.1-3.5c1.4-0.7,2.7-0.4,4,0.4c1.3,0.9,2.2,2.1,2.9,3.4c1.1,2,1.9,4.2,2.1,6.5c0.1,0.9,0.4,1.4,1.2,1.7
			c1.7,0.7,3.4,1.6,5.1,2.4c2.1,1,3.9,2.4,5.3,4.2c2.6,3.2,3.4,7,3.1,11c-0.3,3.7-1.2,7.2-1.8,10.8c-0.7,4.3-1.3,8.6-1.9,12.9
			c-0.1,0.6,0,1.2,0.2,1.8c0.2,1.1,1,1.6,2.1,1.2c1.4-0.4,2.5-1.3,3.6-2.2c2.1-1.9,3.9-4.1,5.6-6.4c3.6-5.2,7.1-10.4,10.6-15.6
			c2.1-3.1,4-6.3,6.1-9.5c0.2-0.3,0.3-0.5,0.5-0.7c0.4-0.5,0.9-0.7,1.5-0.4c0.5,0.3,0.7,0.9,0.5,1.6c-0.1,0.3-0.3,0.6-0.4,0.9
			c-1.9,3.8-4.2,7.4-6.6,11c-3.4,5.2-6.7,10.3-10.1,15.4c-2,3-4.4,5.5-7.2,7.8c-1.6,1.3-3.4,2.2-5.5,2.4c-3.6,0.3-6.4-1.9-7.7-5.1
			c-1.2-3-1.5-6.1-1-9.3c0.7-3.8,1.4-7.5,2-11.3c0.4-2.2,1-4.5,0.8-6.8c-0.2-2.9-0.5-5.7-2.2-8.3c-1-1.6-2.3-2.8-3.9-4.2
			c-0.2,0.8-0.3,1.4-0.4,2c-0.7,3.9-1.9,7.6-3.8,11.1c-2.9,5-7,8.8-12.3,10.9c-3.7,1.5-7.7,1.6-11.5,0c-1.8-0.8-3.4-1.9-4.4-3.7
			c-1-1.8-2.1-3.5-3.1-5.4c-0.3,1.6-0.5,3.2-0.8,4.7c-0.6,3.1-1.3,6.3-2.6,9.2c-1,2.1-2.2,4-4,5.5c-1.5,1.3-4,1.9-6.1,0.1
			c-1.6-1.3-2.6-3-3.4-4.8c-1.4-3.1-2.6-6.4-3.1-9.8c-0.5-3.4-0.8-6.7-1.1-10.1c-0.2-2-0.3-3.9-0.5-5.9c0-0.2-0.1-0.4-0.2-0.9
			c-0.6,1.7-1.1,3.1-1.7,4.6c-2.5,6.2-4.9,12.3-7.4,18.4c-1,2.3-2.3,4.5-3.5,6.6c-0.5,0.9-1.2,1.7-2,2.3c-2.2,1.9-4.9,1.7-6.8-0.5
			c-0.9-1-1.6-2.2-2.2-3.5c-1.5-3.5-2.7-7.2-3-11c0-0.4-0.2-0.8-0.3-1.5c-1,1.7-2,3.2-2.8,4.7c-2.7,4.7-5.3,9.4-8.1,14
			c-1,1.8-2.3,3.5-3.6,5c-1.5,1.7-3.3,1.5-4.7-0.3c-0.9-1.2-1.4-2.7-1.7-4.1c-0.8-3.4-1.1-6.8-0.8-10.3c0.2-3,0.3-6.1,0.6-9.1
			c0.2-2.4,0.6-4.7,0.9-7c0.1-1,0.2-2.1,0.3-3.1c0.2-3.5,0.3-7.1,0.4-10.6c0-0.1,0-0.3,0-0.4c-0.1-1.3-0.5-1.6-1.8-1.3
			c-1.6,0.4-2.8,1.5-4,2.6c-4,3.9-6.5,8.6-8.2,13.9c-0.3,0.9-0.2,2-0.2,3.1c0.1,2.9,0,5.8-0.4,8.6c-0.2,1.4-1.2,2.3-2.4,2.5
			c-1.2,0.2-2.4-0.5-3-1.8c-1.2-2.6-1.9-5.4-2.4-8.2c-0.4-2.7-0.7-5.4-1-8.1c0-0.3-0.1-0.6-0.4-0.9c-0.2,0.4-0.4,0.8-0.6,1.3
			c-1.9,5-3.8,10-5.7,15c-0.7,1.8-1.3,3.6-2.1,5.3c-0.5,1.2-1.2,2.3-2,3.3c-0.4,0.6-1.1,1.1-1.8,1.5c-1.2,0.7-2.3,0.5-3.4-0.3
			c-1.3-0.9-2.1-2.2-2.8-3.5c-1.7-3.3-3-6.7-3.3-10.5c-0.3-3.9-0.5-7.7-0.3-11.6c0-0.1-0.1-0.1-0.1-0.3c-0.5,0.2-0.6,0.7-0.8,1.1
			c-2.6,5.3-5.2,10.6-7.9,15.9c-1,1.9-2.2,3.7-3.4,5.5c-0.5,0.7-1.1,1.3-1.8,1.8c-1.8,1.4-3.7,1.4-5.4,0c-0.8-0.7-1.5-1.5-2-2.3
			c-3.1-4.5-4.9-9.5-5.9-14.9c-1-5.1-1.4-10.2-1.2-15.3c0.1-2,0.4-4,0.6-6c0.1-0.5,0.2-0.9,0.4-1.4c0.6-1.3,1.5-2.1,3-2.1
			c1.5,0,2.5,0.9,2.9,2.2c0.4,1.1,0.6,2.3,0.7,3.5c0.3,3.1,0.4,6.2,0.7,9.3c0.5,6.5,1.1,13,1.7,19.6c0.1,1.3,0.5,2.5,0.8,3.8
			c0.1,0.5,0.3,0.9,0.5,1.3c0.6,1,1.1,1.2,2.1,0.5c1.2-0.8,2.1-1.9,2.9-3.1c1.9-3.3,3.7-6.5,5.4-9.8c2.2-4.5,4.2-9,6.3-13.6
			c0.4-0.9,0.6-1.9,0.7-2.9c0.1-1.3,0.4-2.6,0.7-3.9c0.4-1.5,1.7-2.4,3.1-2.5c1.6-0.1,2.9,0.7,3.6,2.2c0.9,1.9,1.2,3.9,1.2,6
			c-0.1,4.3-0.1,8.5,0,12.8c0,1.9,0.4,3.9,0.5,5.8c0.2,2.1,0.2,4.3,0.4,6.4c0,0.2,0.1,0.4,0.3,0.7c0.3-0.5,0.6-0.9,0.8-1.4
			c2.8-6.5,5.5-13,8.3-19.5c0.8-1.9,1.7-3.9,2.5-5.8c0.2-0.5,0.3-1,0.3-1.5c0.2-2.1,0.2-4.3,0.5-6.4c0.2-1.3,0.7-2.6,1.2-3.8
			c0.3-0.7,1-1.2,1.6-1.6c1.5-0.9,3.3-0.4,3.9,1.3c0.4,1.2,0.7,2.4,0.8,3.6c0.3,3.2,0.5,6.4,0.8,9.7c0.1,1.4,0.2,2.8,0.3,4.5
			c0.3-0.5,0.5-0.7,0.6-1c2-4.2,4.5-7.9,7.7-11.2c1.3-1.3,2.6-2.5,4.2-3.4c3.2-1.7,6.4-0.7,8.3,2.4c1.7,2.8,2.2,5.8,2.3,9
			c0.1,3-0.2,6-0.6,9c-0.5,3.2-0.7,6.4-1.2,9.6c-0.7,4.7-1.4,9.4-2.1,14.2c-0.1,0.8-0.2,1.5-0.2,2.3c0.1,0,0.2,0.1,0.2,0.1
			c0.3-0.4,0.6-0.7,0.9-1.2c1.8-2.9,3.6-5.8,5.4-8.8c2.7-4.5,5.3-9,8.1-13.4c0.8-1.3,0.8-2.7,1-4.1c0.5-5,1.7-9.8,4.3-14.1
			c1.7-2.9,4-5.2,7.5-6.1c2.9-0.7,7.2,0.5,9.2,3.4c1.7,2.5,2.4,5.2,2.2,8.2c0,0.5-0.2,0.9-0.4,1.4c-0.5,1-1.8,1.1-2.4,0.2
			c-0.3-0.4-0.4-0.8-0.6-1.3c-0.7-1.5-1.5-2.9-2.8-4c-1.2-1-2.3-1.1-3.3-0.2c-0.5,0.4-1,1-1.4,1.5c-1.8,3.3-3.1,6.8-3.6,10.6
			c-0.5,3.4-0.5,6.8-0.5,10.2c0,1.8-0.1,3.5,0.1,5.3c0.2,1.9,0.5,3.7,0.9,5.6C213.2,228.2,213.4,228.4,213.6,228.8z M259.1,196.4
			c1.9,0,3.7-0.5,5.1-1.9c1.3-1.2,1.6-2.7,1-4.3c-0.5-1.5-1.4-2.8-2.7-3.7c-0.3-0.2-0.7-0.4-1-0.5
			C260,188.1,258.7,193.6,259.1,196.4z M280.1,183.9c-0.5,0.5-0.5,1.1-0.4,1.7c0.3,1.8,2.6,4.1,4.5,4.6
			C284,187.3,282.1,184.3,280.1,183.9z"/>
		<path d="M235.4,326.5c-0.3,0.5-0.4,0.7-0.5,1c-2.9,6.8-5.8,13.5-8.7,20.3c-1.1,2.5-2.3,4.9-4.3,6.8c-1.3,1.3-2.8,2.2-4.8,2.2
			c-2.2,0-3.9-1.1-5.3-2.6c-1.8-1.9-3-4.2-3.8-6.7c-0.9-2.7-1.7-5.4-1.8-8.3c0-2.1-0.2-4.3-0.2-6.4c0-1.3-0.1-2.7-0.1-4
			c0-0.7,0.1-1.4,0.2-2.5c-0.8,0.6-1.4,0.9-1.9,1.4c-1.9,1.8-3.7,3.6-5.5,5.4c-1.7,1.7-3.4,3.4-5.2,5.1c-0.4,0.4-0.9,0.8-1.4,1.1
			c-2.3,1.5-4.7,1.2-6.7-1c-1.4-1.4-2.4-3.2-3.3-4.9c-1.8-3.5-2.8-7.2-3.2-11.1c-0.3-2.7,0-5.3,0.5-8c0-0.2,0.1-0.4,0.1-0.8
			c-2.5,0.3-4.9,0.5-7.3,0.8c-0.3,2.1-0.5,4.2-0.9,6.2c-1.5,7.3-4,14.1-8.6,20c-0.8,1-1.6,1.9-2.5,2.8c-1.9,1.9-4,2.2-6.5,0.7
			c-2.1-1.3-3.7-3.1-4.9-5.2c-1.6-2.9-2.7-6.1-3.1-9.4c-0.3-2.2-0.5-4.4-0.5-6.6c-0.1-3.7-0.1-7.5-0.2-11.2c0-0.4,0-0.9,0-1.5
			c-0.4,0.4-0.7,0.8-1,1.1c-2.6,3.1-4.6,6.7-6.8,10.1c-1.2,1.9-2.5,3.8-3.8,5.7c-0.5,0.7-1.2,1.4-1.8,2c-2,2-4.7,1.9-6.6-0.6
			c-3.9-5.1-6.2-10.8-6.9-17.2c-0.5-3.8-0.8-7.6-0.3-11.5c0.3-2.3,0.6-4.5,1.9-6.5c0.8-1.1,1.8-1.7,3.2-1.5c1.4,0.2,2.2,1.1,2.5,2.5
			c0.3,1.7,0.5,3.3,0.7,5c0.2,2.9,0.3,5.8,0.5,8.6c0.3,3.1,0.6,6.3,0.9,9.4c0.3,2.6,0.8,5.2,1.2,7.8c0.1,0.6,0.4,1.1,0.6,1.9
			c0.5-0.4,1-0.6,1.3-1c1.1-1.4,2.3-2.7,3.2-4.2c3.4-5.4,6.8-10.8,10.2-16.2c0.3-0.4,0.6-0.8,0.9-1.3c1.5-2.5,5.2-2.1,6.6,0
			c0.7,1.1,1.4,2.2,1.6,3.5c0.4,1.6,0.5,3.3,0.6,5c0.1,3.1-0.1,6.2,0.1,9.3c0.1,2.9,0.5,5.8,0.8,8.7c0.1,1.6,0.2,3.2,0.5,4.7
			c0.2,1.5,0.5,3,1.1,4.4c0.8,1.9,1.8,2.1,3.3,0.8c1.3-1.1,2.4-2.4,3.3-3.7c4.4-6.6,6.8-14,7.2-21.9c0-0.2,0-0.3-0.1-0.6
			c-0.5-0.1-1.1-0.3-1.6-0.4c-4.6-1.2-7.9-5-8.4-9.8c-0.2-2.3,0.1-4.4,1.4-6.3c1.9-2.7,5-2.8,7.1-0.3c1.2,1.4,1.8,3.1,2.4,4.8
			c0.8,2.6,1.1,5.3,1.3,8c0,0.3,0,0.6,0.1,1c0.3,0,0.7,0.1,1,0.1c2.1-0.2,4.1-0.3,6.2-0.5c0.6,0,0.9-0.4,1.1-0.9
			c0.8-2.4,1.8-4.6,3.3-6.7c1.8-2.5,4.1-4.4,7.2-5.2c2.8-0.7,5.4-0.2,7.8,1.6c2.7,2,4.4,4.5,5.3,7.6c0.3,0.9,0.3,1.9,0.4,2.8
			c0,0.4-0.1,0.9-0.2,1.3c-0.2,0.6-0.5,1.1-1.2,1.2c-0.7,0.1-1.3-0.2-1.6-0.8c-0.3-0.6-0.6-1.2-0.9-1.9c-0.8-1.9-2.1-3.3-3.8-4.5
			c-1.6-1.1-2.9-1-4.3,0.4c-1.7,1.7-2.6,3.9-3.3,6.1c-1.9,5.5-1.9,11.1-1.2,16.7c0.3,2.1,0.7,4.2,1.2,6.3c0.6,2.2,1.5,2.5,3.3,1.1
			c1.9-1.6,3.7-3.3,5.5-5.1c2.5-2.6,4.9-5.4,7.3-8c0.6-0.6,1.2-1.3,1.9-1.7c2.5-1.3,4.2-0.9,6,1.8c1.2,1.8,1.8,4,1.8,6.3
			c0.1,2.2,0,4.5,0,6.7c0.1,1.5,0.3,3.1,0.4,4.6c0.4,3.2,0.7,6.4,1.1,9.6c0.1,0.7,0.3,1.4,0.5,2c0.4,1,1,1.3,1.9,0.8
			c0.9-0.5,1.7-1.2,2.3-2c0.9-1.1,1.6-2.3,2.2-3.6c1.7-3.5,3.3-7,4.8-10.6c2.4-5.6,4.6-11.2,6.8-16.9c0.2-0.4,0.3-0.8,0.3-1.2
			c0-2.7,0.1-5.4,0.1-8.1c0-0.3,0-0.7-0.1-1.2c-1.1,0-2.2,0-3.2,0c-2.3-0.1-4.6-0.2-7-0.4c-0.3,0-0.7-0.1-1-0.2
			c-0.5-0.2-0.8-0.6-0.8-1.2c0-0.5,0.4-0.9,0.9-1c0.4-0.1,0.8-0.2,1.3-0.2c2.8,0,5.5,0,8.3-0.1c0.6,0,1.1,0,1.7,0
			c0.1-0.9,0.1-1.7,0.2-2.5c0.4-4.4,0.8-8.8,2.4-12.9c0.3-0.7,0.7-1.5,1.3-2.1c1.2-1.2,3-1,3.9,0.5c0.4,0.6,0.6,1.4,0.7,2.2
			c0.6,4.5,0.6,8.9,0.4,13.4c0,0.6,0,1.2,0,2c0.9,0.1,1.9,0.2,2.8,0.3c1.5,0.1,3.1,0.2,4.6,0.3c0.3,0,0.7,0.1,1,0.1
			c0.6,0.2,1,0.5,1,1.2c0,0.6-0.5,1.1-1.1,1.2c-0.4,0.1-0.9,0.1-1.3,0c-2.1-0.1-4.1-0.1-6.2-0.2c-0.3,0-0.5,0-0.8,0
			c-0.4,0.6-0.3,1.3-0.3,1.9c-0.1,5.9-0.1,11.7,0.5,17.5c0.3,3,0.5,6,0.8,9c0.3,3,0.8,6.1,1.8,9c0.3,0.8,0.6,1.5,1.1,2.2
			c0.5,0.8,1.3,1,2.1,0.4c0.8-0.6,1.5-1.4,2.1-2.2c1.6-2.3,2.5-4.9,3.2-7.6c1.1-4,2-8,3-12c0.3-1.1,0.2-2.1,0-3.2
			c-0.9-4.7-0.9-9.3-0.2-14c0.4-2.8,1.2-5.5,2.6-7.9c1.3-2.2,2.9-4.3,5.1-5.7c2.1-1.4,4.4-2.2,7-1.4c2,0.6,3.3,2.1,4.4,3.8
			c1.9,3.2,2.4,6.7,1.5,10.3c-0.6,2.4-2.1,4-4.2,5.2c-2.2,1.3-4.6,1.6-7.1,1.8c-0.3,0-0.7,0-1.2,0.1c0.1,1.3,0.1,2.6,0.2,3.9
			c0.4,3.3,1.1,6.6,2.7,9.5c1.3,2.4,2.8,4.6,5.3,6c3.3,1.8,6.7,2.1,10.2,0.7c3.4-1.3,6.1-3.7,8.2-6.7c4-6,5.2-12.7,3.8-19.8
			c-0.1-0.3-0.2-0.7-0.3-1c-1.6-0.5-3.1-0.9-4.7-1.5c-1.9-0.7-3.7-1.7-5-3.3c-0.9-1.2-1.5-2.5-1.5-4c0.1-3.4,3.4-5.4,6.5-3.7
			c1.4,0.8,2.5,1.9,3.5,3.2c1.3,1.8,2.3,3.7,3,5.8c0.2,0.7,0.6,1,1.3,1.1c3.3,0.5,6.2,1.7,8.8,3.7c1.9,1.5,3.3,3.4,4.5,5.5
			c1.6,2.9,2.1,6.1,2.3,9.3c0.2,2.9-0.1,5.7-0.4,8.6c-0.6,5.2-1.1,10.4-1.5,15.7c-0.2,2.3-0.1,4.6,0,6.8c0.1,1.8,0.4,3.5,1.6,5
			c0.8,1,1.3,1.2,2.4,0.5c0.9-0.5,1.7-1.2,2.4-1.9c2.6-2.6,4.7-5.6,6.7-8.7c3.3-5.1,6.3-10.3,9.1-15.6c1.2-2.3,2.3-4.7,2.9-7.3
			c0-0.2,0.1-0.4,0.2-0.6c0.2-0.5,0.6-0.8,1.1-0.7c0.6,0.1,0.8,0.5,0.8,1c0,0.4-0.1,0.8-0.2,1.1c-0.7,3.6-2.2,6.9-4,10
			c-3.6,6.3-7.3,12.5-11,18.7c-1.6,2.6-3.6,4.9-6,6.9c-1.7,1.4-3.5,2.2-5.7,1.7c-1.7-0.4-3.2-1.2-4.4-2.6c-2.6-3-4-6.5-4.5-10.4
			c-0.3-2.6-0.1-5.3,0.1-7.9c0.3-3.8,0.8-7.5,1.2-11.3c0.4-2.8,0.6-5.5,0.5-8.4c-0.1-3-1-5.8-1.7-8.6c-0.5-1.7-1.1-3.2-2.2-4.6
			c-0.8-1-1.8-1.6-2.9-2.4c0.1,1.7,0.2,3.3,0.1,4.9c-0.1,5.5-1.8,10.5-4.6,15.1c-1.8,2.9-4,5.5-6.7,7.6c-3.7,2.8-7.9,4.5-12.6,4.2
			c-4.5-0.3-8.5-1.7-11.8-5c-1.4-1.4-2.5-3.2-3.4-5c-0.2-0.4-0.4-0.8-0.7-1.4c-0.1,0.4-0.3,0.6-0.3,0.8c-0.9,3.8-1.8,7.7-2.9,11.5
			c-0.8,2.8-2.2,5.4-4.3,7.5c-2.7,2.6-5.5,2.4-8.3,0c-2.2-2-3.6-4.5-4.8-7.2c-2.3-5.3-3.8-10.9-4.2-16.7
			C235.5,327.2,235.5,327,235.4,326.5z M266.8,313.1c2.1,0.2,4,0,5.8-0.9c0.8-0.4,1.6-1,2.3-1.6c1.6-1.7,1.7-3.8,1.2-5.9
			c-0.3-1.4-0.9-2.6-2.1-3.5c-1.3-1-2.1-0.9-3.1,0.3c-0.7,0.9-1.4,2-1.8,3.1C268,307.2,267.1,310,266.8,313.1z M165.5,299.5
			c-1,0.8-1.3,1.7-1.4,2.7c-0.3,2.6,0.5,4.8,2.2,6.8c0.9,1,2,1.7,3.5,2.2C169.3,306.8,168.5,302.8,165.5,299.5z M295.2,306.2
			c-0.8-1.6-1.5-2.9-2.6-4c-0.6-0.7-1.3-1.3-2.1-1.8c-0.9-0.6-1.6-0.2-1.5,1c0.1,1.4,0.8,2.5,1.9,3.2
			C292.1,305.4,293.5,305.9,295.2,306.2z"/>
		<path d="M258.4,240c0.9,3.9,0.8,7.9,0.9,11.9c0.1,2.2-0.1,4.4-0.1,6.6c-0.1,2.9-0.2,5.8-0.3,8.6c0,1.1-0.2,2.2-0.3,3.5
			c0.6,0,1,0,1.4,0c1.8,0,3.5,0,5.3,0c0.5,0,1.1,0.1,1.6,0.3c0.6,0.3,0.9,1,0.8,1.5c-0.2,0.6-0.7,0.8-1.3,0.8
			c-2.6,0.1-5.2,0.2-7.8,0.3c-0.1,0.4-0.3,0.7-0.3,1.1c-0.4,2.8-0.7,5.6-1.2,8.4c-0.2,1.2-0.2,1.6,1.3,2c0.9,0.3,1.9,0.4,2.9,0.5
			c3,0.2,5.9,0.4,8.9,0.6c0.4,0,0.9-0.1,1.3-0.1c0.5-0.1,1,0.1,1.2,0.6c0.2,0.6,0.1,1.1-0.4,1.3c-0.5,0.3-1,0.5-1.6,0.5
			c-4-0.1-8-0.1-12-0.4c-3.8-0.3-5.7-2-6.7-5.6c-0.4-1.4-0.7-2.8-0.8-4.2c-0.3-3.3-0.5-6.6-0.8-9.9c-0.1-1.3,0-2.6-0.2-3.9
			c-0.1,0.2-0.3,0.4-0.4,0.7c-2.9,6.5-5.8,13-8.7,19.4c-1,2.3-2.3,4.5-4,6.4c-0.5,0.5-1,1-1.5,1.4c-1.8,1.3-3.8,0.9-5.3-0.6
			c-1.2-1.2-1.8-2.6-2.2-4.2c-1.1-3.7-1.1-7.5-0.6-11.4c0.4-3.1,1.1-6.2,1-9.4c0-0.5,0-0.9-0.1-1.4c-0.2-0.9-0.4-1.1-1.4-1.2
			c-1.3-0.1-2.5,0.3-3.6,0.8c-3.1,1.4-5.7,3.5-8,6c-2.4,2.7-4.2,5.6-5.4,9c-0.5,1.3-0.5,2.6-0.4,3.9c0.1,1,0.2,2,0.2,3
			c0,1.3-0.6,2.3-1.8,2.9c-1.3,0.6-2.5,0.4-3.5-0.6c-0.7-0.7-1.3-1.5-1.8-2.3c-1.6-2.8-2.3-5.8-2.9-8.9c-0.3-1.4-0.6-2.8-1-4.4
			c-0.6,0.5-1.1,0.8-1.5,1.2c-4,3.4-8,6.9-12,10.3c-1.7,1.5-3.5,2.7-5.7,3.6c-2.6,1-4.9,0.3-6.4-2.1c-1.2-1.8-1.8-3.9-2.4-6
			c-1.3-4.6-2.3-9.4-2.7-14.2c-0.2-3.4-0.5-6.9-0.7-10.3c0-0.3-0.1-0.5-0.1-0.9c-0.3-0.1-0.6-0.2-1-0.2c-4.9-0.2-9.5,0.7-13.8,3.1
			c-0.7,0.4-1.2,0.9-1.8,1.4c-0.6,0.5-1.1,0.7-1.6,0.3c-0.6-0.4-0.7-0.9-0.4-1.7c0.4-1,1.2-1.6,2-2.1c2.6-1.8,5.6-2.9,8.6-3.6
			c2.3-0.6,4.6-0.8,6.9-0.8c0.3,0,0.6,0,1-0.1c0-0.7,0-1.5,0.1-2.2c0.2-4.7,0.3-9.5,0.5-14.2c0-1.1,0.3-2.2,0.6-3.3
			c0.3-1.4,1.3-2.2,2.5-2.3c1.4-0.1,2.4,0.4,3,1.6c0.5,1.2,1,2.5,1.2,3.8c0.6,3.7,0.6,7.5,0.5,11.2c0,2.1,0,4.3,0,6.6
			c7,1.6,14,3.5,21.4,3.9c0-0.8-0.1-1.4,0-2c0.2-2.2,0.3-4.5,0.7-6.7c0.7-3.3,2.1-6.3,4.6-8.6c2.3-2.1,5-3,8.1-1.8
			c1.5,0.6,2.6,1.6,3.3,2.9c1.8,3,2.5,6.2,1.4,9.7c-0.8,2.5-2.4,4.4-4.6,5.7c-1.3,0.8-2.8,1.4-4.1,2.1c-0.2,0.1-0.5,0.2-0.7,0.3
			c0.2,5.9,1.2,11.7,2.4,17.6c0.2-0.2,0.4-0.4,0.5-0.6c2.3-4.2,5.5-7.6,9.2-10.5c1.9-1.5,3.9-2.9,6.1-3.8c1.1-0.5,2.4-0.8,3.6-1
			c3.1-0.4,5.6,1.2,6.7,4.1c0.8,2.2,1.1,4.4,1,6.7c0,3.8-0.5,7.5-0.9,11.3c-0.2,1.7-0.2,3.3-0.2,5c0,0.5,0.2,1,0.3,1.8
			c0.6-0.6,1.1-1,1.4-1.6c1.3-2.2,2.7-4.4,3.8-6.7c3.2-7,6.3-14.2,9.5-21.2c1-2.2,1.5-4.5,1.5-7c0-3.3,0.4-6.5,0.7-9.8
			c0.1-1.3,0.6-2.5,1.3-3.6c0.1-0.2,0.3-0.5,0.3-0.8c0.2-1.1,0.5-1.5,1.7-1.6c1.8-0.2,3.7-0.3,5.5-0.3c3.4-0.1,6.7-0.1,10.1-0.1
			c0.7,0,1.4,0,2,0.2c0.4,0.1,0.8,0.4,1.1,0.7c0.4,0.4,0.4,0.9,0.1,1.4c-0.3,0.4-0.7,0.6-1.2,0.5c-0.4-0.1-0.8-0.2-1.3-0.1
			c-4.1,0.2-8.2,0.5-12.2,0.8C258.6,239.9,258.6,239.9,258.4,240z M175.6,256.6c0,0.8-0.1,1.4-0.1,2c0,4.3-0.1,8.5-0.1,12.8
			c0,3.3,0,6.5,0.5,9.8c0.2,1.2,0.5,2.4,0.9,3.5c0.4,1,0.9,1.2,2,0.8c0.5-0.2,1-0.4,1.4-0.6c1.3-0.8,2.6-1.7,3.8-2.6
			c2.8-2.2,5.6-4.5,8.3-6.7c1.7-1.4,3.4-2.9,5.2-4.2c0.6-0.5,0.8-1,0.7-1.7c0-0.2-0.1-0.4-0.1-0.6c-0.2-2.1-0.5-4.3-0.7-6.4
			c-0.1-0.9-0.2-1.8-0.3-2.8C189.7,260.1,182.8,258.3,175.6,256.6z M205.7,255.9c3-1,5.4-2.5,6.7-5.2c1.5-2.9,0.7-6.1-1.5-8.4
			c-1-1.1-2.2-0.9-3,0.3c-0.3,0.4-0.5,0.9-0.7,1.4C205.9,247.8,205.8,251.8,205.7,255.9z"/>
	</g>
	<path class="st2" d="M111.1,242c0.2-2.1,0.7-4.1,1.8-5.9c1-1.7,3.3-3.2,6-1.6c0.8,0.5,1.5,1.2,2.1,1.9c2.4,2.8,4,6.1,5.5,9.5
		c0.1,0.3,0.2,0.5,0.4,0.9c0.3-0.2,0.6-0.4,0.8-0.6c1-0.8,2-1.6,3-2.4c1.4-1,2.9-1.6,4.6-1.7c2-0.1,3.8,0.4,5.2,2
		c1,1.2,1.4,2.6,1.6,4.1c0.3,3.1-0.6,5.9-2.1,8.6c-1.2,2.1-2.7,3.9-4.5,5.6c-0.6,0.5-1.1,1.1-1.7,1.6c0.1,0.1,0.1,0.2,0.2,0.2
		c1,0.8,1.3,1.9,1.2,3.2c-0.1,1.4-0.6,2.6-1.3,3.8c-0.5,0.8-1,1.5-1.8,1.9c-0.8,0.5-1.7,1-2.5,1.4c-2.3,1-4.8,1.8-7.3,2.4
		c-2.6,0.7-5.3,1.1-8.1,1c-1.7-0.1-3.4-0.4-4.9-1.3c-1.9-1.2-2.8-3-3-5.1c0-0.2,0-0.3,0-0.5c-0.1,0-0.2-0.1-0.4-0.1
		c-1.3-0.2-2.6-0.3-3.9-0.5c-1.4-0.2-2.8-0.6-4.2-1.2c-1.9-0.8-3.4-1.9-4.6-3.5c-1.5-2-2-4.3-1.7-6.8c0.4-2.9,1.9-5,4.4-6.4
		c0.6-0.3,1.2-0.5,1.8-0.8c0-0.1,0-0.2-0.1-0.3c-0.5-0.9-0.8-1.9-1.1-3c-0.4-1.7-0.6-3.5,0-5.2c0.8-2.3,2.3-3.8,4.8-4.1
		c1.3-0.2,2.5,0.1,3.6,0.5c1.8,0.7,3.3,1.6,4.8,2.8c0.4,0.3,0.7,0.6,1.2,1C111,242.7,111,242.3,111.1,242z M129.1,266
		c-0.1,0.3-0.1,0.6-0.2,0.9c-0.2,0.7-0.6,1-1.3,0.8c-0.8-0.2-1.5-0.3-2.2-0.6c-1.8-0.7-3.3,0-4.6,1.3c-0.3,0.3-0.7,0.7-1,1
		c-0.6,0.5-1.3,0.7-2,0.3c-0.6-0.3-1.1-0.5-1.7-0.8c-0.4-0.2-0.9-0.4-1.3-0.5c-0.9-0.3-1.9,0.1-2.4,0.9c-0.5,0.7-1,1.5-1.5,2.2
		c-0.3,0.4-0.3,0.9,0,1.2c0.3,0.3,0.7,0.5,1.1,0.2c0.4-0.2,0.7-0.5,1-0.8c0.4-0.4,0.7-0.9,1-1.3c0.2-0.3,0.5-0.5,0.9-0.3
		c0.7,0.3,1.4,0.6,2.1,0.9c1.1,0.5,2.1,0.7,3.3,0.3c0.8-0.3,1.5-0.7,2.1-1.3c0.3-0.3,0.6-0.6,0.9-0.9c0.4-0.4,0.9-0.5,1.4-0.4
		c0.7,0.1,1.4,0.3,2.1,0.4c0.6,0.1,1.3,0.2,1.9,0.1c1.4-0.1,2.3-0.9,2.6-2.3c0.1-0.3,0.1-0.7,0.1-1c0-0.7-0.5-1.2-1.1-1.1
		C129.6,265.2,129.3,265.5,129.1,266z M106.4,251.4c0.4,0.6,0.9,1.2,1.3,1.8c1.4,1.6,2.8,3.2,4.2,4.7c0.7,0.7,1.5,1.4,2.2,2
		c0.2,0.2,0.4,0.3,0.6,0.4c0.4,0.2,0.9,0,1.1-0.3c0.2-0.3,0.2-0.8-0.1-1.1c-0.2-0.2-0.3-0.3-0.5-0.5c-2.6-2.6-4.9-5.4-6.8-8.6
		c-0.4-0.7-0.8-1.5-1.2-2.2c-0.4-0.8-0.7-1-1.3-0.8c-0.5,0.1-0.8,0.6-0.8,1.4C105.3,249.4,105.8,250.5,106.4,251.4z M116.7,248
		c0.6,2.1,1.2,4.2,1.8,6.3c0.2,0.5,0.4,1,0.7,1.5c0.1,0.2,0.3,0.4,0.6,0.5c0.3,0.2,0.7,0.2,1-0.1c0.3-0.3,0.3-0.6,0.2-0.9
		c-0.1-0.4-0.3-0.7-0.4-1c-1-3.8-1.9-7.7-2.4-11.6c0-0.2-0.1-0.5-0.1-0.7c-0.1-0.4-0.4-0.7-0.8-0.7c-0.4,0-0.7,0.2-0.8,0.6
		c-0.1,0.2-0.1,0.4-0.1,0.5c-0.1,0.5-0.1,1-0.2,1.5C116.1,245.3,116.4,246.6,116.7,248z M127.6,258.9c0.3,0.2,0.6,0.2,0.9,0
		c0.3-0.2,0.6-0.5,0.8-0.7c1.3-1.4,2.6-2.8,3.8-4.4c0.8-1,1.3-2.1,2-3.2c0.2-0.3,0.4-0.7,0.5-1c0.2-0.4,0.1-0.8-0.2-1.1
		c-0.3-0.2-0.8-0.3-1.1,0c-0.4,0.4-0.9,0.8-1.2,1.2c-1.3,1.8-2.6,3.6-3.9,5.4c-0.6,0.8-1.1,1.5-1.7,2.3c-0.2,0.2-0.3,0.5-0.3,0.6
		C127.2,258.4,127.3,258.7,127.6,258.9z M108.8,265.6c0.6-0.1,0.9-0.4,1-0.9c0-0.5-0.3-0.9-0.9-1.1c-0.3-0.1-0.6-0.1-0.9-0.2
		c-1.6-0.2-3.1-0.8-4.6-1.5c-1.5-0.8-3-1.6-4.6-2.5c-0.3-0.2-0.5-0.4-0.8-0.6c-0.4-0.2-0.7-0.2-1,0c-0.3,0.2-0.4,0.6-0.2,1
		c0.1,0.3,0.3,0.6,0.5,0.7c2.3,1.6,4.6,3.2,7.2,4.3c1.1,0.5,2.2,0.8,3.5,0.9C108.2,265.7,108.5,265.7,108.8,265.6z"/>
	<path class="st8" d="M330.2,260.8c-0.1,2.5-0.9,5-2.7,7.1c-3.2,3.6-7.7,3.2-10.6,0.2c-2.7-2.8-3.3-6.2-2.3-9.9
		c0.5-1.6,1.4-2.8,2.8-3.8c0.9-0.6,1.9-1.2,2.9-1.6c1.9-0.8,3.7-0.5,5.4,0.4C328.7,254.8,330.1,257.2,330.2,260.8z M317.5,260.7
		c0,1.4,0.7,2.5,1.3,3.7c0.6,1.1,1.7,1.6,2.6,2.3c0.5,0.4,1.2-0.1,1.2-0.7c0-0.4-0.2-0.8-0.5-1.1c-0.8-0.6-1.2-1.4-1.3-2.4
		c-0.1-1-0.2-1.9-0.3-2.9c0-0.4-0.1-0.7-0.2-1.1c-0.3-0.7-1.2-1-1.8-0.5c-0.3,0.2-0.5,0.6-0.6,0.9
		C317.6,259.5,317.6,260.1,317.5,260.7z"/>
	<path class="st9" d="M280.1,263.1c0.1-2.5,0.9-5,2.7-7.1c3.2-3.6,7.7-3.2,10.6-0.2c2.7,2.8,3.3,6.2,2.3,9.9
		c-0.5,1.6-1.4,2.8-2.8,3.8c-0.9,0.6-1.9,1.2-2.9,1.6c-1.9,0.8-3.7,0.5-5.4-0.4C281.7,269.2,280.2,266.7,280.1,263.1z M292.9,263.3
		c0-1.4-0.7-2.5-1.3-3.7c-0.6-1.1-1.7-1.6-2.6-2.3c-0.5-0.4-1.2,0.1-1.2,0.7c0,0.4,0.2,0.8,0.5,1.1c0.8,0.6,1.2,1.4,1.3,2.4
		c0.1,1,0.2,1.9,0.3,2.9c0,0.4,0.1,0.7,0.2,1.1c0.3,0.7,1.2,1,1.8,0.5c0.3-0.2,0.5-0.6,0.6-0.9C292.7,264.4,292.8,263.9,292.9,263.3
		z"/>
	<path class="st2" d="M316.5,303.9c-1.6-1.9-2.7-4.3-2.7-7.1c0-4.8,3.7-7.5,7.8-7.1c3.9,0.4,6.6,2.4,8.3,5.9
		c0.7,1.5,0.8,3.1,0.4,4.7c-0.3,1.1-0.6,2.1-1.1,3.1c-0.9,1.8-2.4,2.8-4.3,3.3C321.7,307.4,318.9,306.5,316.5,303.9z M326.1,295.5
		c-1-1-2.2-1.5-3.4-1.9c-1.2-0.4-2.3-0.1-3.5,0c-0.6,0-0.9,0.9-0.4,1.4c0.3,0.3,0.7,0.5,1.1,0.4c1-0.1,1.9,0.2,2.6,0.9
		c0.7,0.7,1.4,1.3,2.1,2c0.3,0.2,0.5,0.5,0.8,0.7c0.7,0.4,1.5-0.1,1.6-0.8c0.1-0.4,0-0.8-0.1-1.1C326.8,296.5,326.4,296,326.1,295.5
		z"/>
	<g>
		<path class="st8" d="M234.6,112.4c-2.5-0.5-5.3-0.6-7.8-0.5c-13.5,1.2-24.2,7.5-32.5,18.3c-1.6,2.2-3,4.5-4.7,7
			c1.1-3.6,2.8-6.7,4.8-9.3c3.4-4.5,7.1-9,10.6-13.5c5-6.4,7.3-13.7,7.3-21.6c0-8.4-3.6-15.1-10.3-19.9c-4-3-8.5-5.3-13.5-6.7
			c-11-3.3-20.8-1.1-29.5,6.2c-4.7,3.9-7.5,8.7-8.5,14.8c-0.5,3.3,0.2,6.2,1.6,9.2c3.1,6.2,12.9,9.3,18.8,7.3
			c2.3-0.8,4.5-2.2,5.7-4.3c0.9-1.6,1.4-3.6,1.7-5.3c0.5-2.6-0.6-3.9-3.4-4.3c-1.2-0.2-2.6-0.2-3.9-0.5c-1.1-0.2-2.3-0.5-2.8-1.7
			c-0.5-1.4,0.2-2.3,1.1-3.3c2.2-2.2,4.8-3.3,7.9-3.4c3.3-0.2,5.7,1.2,6.8,4.5c0.8,2,1.4,4.2,1.4,6.4c0,5-1.4,9.6-4.7,13.7
			c-0.6,0.8-1.2,1.6-1.9,2.3c-5.6,6.7-11.2,13.5-15.1,21.3c-0.2,0.2-0.3,0.3-0.6,0.5c-1.2-2.3-2.3-4.5-3.6-6.8
			c-2.2-3.9-5.4-6.5-9.5-8.1c-8.2-3.3-19.7-0.2-25.3,6.8c-3.6,4.5-5.3,9.8-4.2,15.5c1.1,5.9,4.7,9.5,10.4,11
			c1.4,0.3,2.8,0.5,4.7,0.9c-1.2,0.8-2,1.2-3,1.7c-4,2.3-7.6,5.3-10.3,9.2c-1.1,1.7-0.9,2.8,0.5,3.9c1.7,1.4,2.8,1.4,4.2-0.2
			c1.9-2.2,4.2-3.4,6.7-4.3c1.7-0.6,3.6-0.9,5.4-1.6c2.6-0.8,5.3-1.4,7.8-2.3c3.3-1.4,5.6-3.9,7-7.3c0.6-1.9,1.4-3.7,1.6-5.6
			c1.1-7.3-1.4-13.2-7.1-17.7c-4-3.1-9.5-2.8-13,0.5c-2.6,2.3-3.4,5.3-1.7,8.4c1.2,2.2,3.1,4.2,4.7,6.2c0.5,0.6,0.9,1.1,1.6,1.6
			c-0.6,1.2-1.4,2.2-2.8,2.3c-4.2,0.8-10.4-1.4-11.5-7.1c-1.1-5.9,1.7-12.6,7.1-15.7c4-2.3,8.2-3.4,12.9-2.8
			c4.3,0.6,7.8,2.6,9.9,6.4c1.6,2.8,3,5.6,4,8.5c1.2,3.1,1.7,6.4,0.9,9.6c-0.8,3.6-2,7.1-3.1,10.7c-0.8,2.3-1.6,15.4-2.2,17.8
			c-0.6,2.5,0.2,4.8,1.1,7.1c0.6,1.4,1.7,1.9,3,1.4c1.2-0.5,1.7-1.6,1.4-3c-0.2-0.6-0.3-1.2-0.6-1.9c-0.8-2.3-0.2-4.7,0.9-6.8
			c0.2,0.2,0.5,0.3,0.5,0.5c1.1,3.4,2,6.7,3.1,10.1c0.5,1.6,1.4,2,3,1.7c0.8-0.2,1.6-0.3,2.3-0.5c1.7-0.2,2.6-1.2,2.3-3.1
			c-0.2-0.8-0.5-1.6-0.8-2.3c-0.8-2.6-1.9-5.3-2.3-7.9c-2.2-9.9-1.2-30.4,4.7-38.9c2.2-3.3,4.8-6.1,7.5-9.2c2.5-3,5.3-5.6,7.6-8.5
			c5-6.2,7.3-13.2,5.9-21.3c-0.9-5.3-3.6-9.6-8.2-12.4c-9.2-5.3-20.5,0.5-24.2,6.5c-2.6,4.2-1.6,9,2.3,12c2.2,1.7,4.8,2.3,7.8,2.3
			c-0.8,1.9-2,2.3-3.4,2.5c-3.9,0.5-7.3-0.6-10.3-3.1c-2.2-1.9-3.3-4.3-3.1-7.1c0.2-3,0.9-5.6,2.6-8.1c5.4-8.5,16.2-13,26.1-11.2
			c5,0.9,9.5,3,13.8,5.6c7.3,4.5,10.9,10.9,10.3,19.4c-0.5,7.1-3.1,13.2-7.8,18.6c-4.5,5.3-9.2,10.6-12.4,16.6
			c-4.5,8.7-6.2,28.5-2.3,38c0.9,2.3,1.7,4.7,2.5,6.8c0.3,0.8,0.6,1.7,1.2,2.3c0.9,1.1,2.3,1.4,3.6,0.8c1.1-0.6,1.4-1.9,0.9-3.3
			c-0.3-0.8-0.8-1.4-0.9-2.2c-0.5-1.1-0.9-2.2-1.1-3.3c-0.8-7.6,0.2-25.5,4-32.4c6.1-10.6,14.9-17.1,26.6-19.9
			c3.4-0.8,7-1.1,10.4-0.6c4.7,0.6,7.6,3.1,9,7.5c1.1,3.4,1.2,6.8,0.8,10.4c-1.2,9-7.3,13.5-15.2,14.9c-2.2,0.5-3.4-0.3-4.8-1.9
			c0.6-0.2,1.2-0.3,1.9-0.5c3-0.9,5.4-2.6,7.1-5.3c4.3-6.2,0.9-14.8-6.4-16.5c-7.1-1.6-13,0.6-18.2,5.6c-1.7,1.7-3,3.7-3.6,6.1
			c-1.9,7.5-1.6,25.5,1.9,32.5c2.3,4.8,6.8,6.8,11.8,7.8c1.7,0.3,2.8-0.9,2.6-2.6c0-1.9-0.9-3.1-2.5-4c-1.6-0.9-3.3-2-4-3.4
			c-3.4-6.4-4-23.7-0.2-30.2c1.9-3.1,4.7-4.8,8.2-4.7c1.1,0,2.2,0.5,3.1,1.1c1.4,0.9,1.4,1.4,0.6,2.8c-1.4,2.6-3.7,4-6.5,4.7
			c-2.6,0.6-3.6,2.2-3,5c0.6,3.1,2.6,5.3,5.1,7.1c1.7,1.2,3.6,1.9,5.6,1.7c6.7-0.6,12.6-3.3,16.6-8.9c5.7-7.8,5.9-16.3,2.5-24.9
			C243.3,116.1,239.5,113.2,234.6,112.4z M146.3,142.4c-1.4-3.9-4.2-7.1-4.3-11.5C146,131.2,148.7,138,146.3,142.4z"/>
		<path class="st9" d="M218.3,104.3c0.9,0.8,2,0.6,3,0c1.2-0.9,2.6-1.7,3.6-3c1.6-1.9,3-4,4.3-6.2c0.5-2.2,1.2-4.5,1.4-6.7
			c0.2-1.9-0.2-3.7-0.8-5.4c-1.7-4-5.9-4.7-8.9-1.4c-1.6,1.9-2,4-2,6.4c0,4.5,0.5,9-1.6,13.2C217,102.3,217.2,103.6,218.3,104.3z
			 M225.1,84.5c1.6,2.6,1.1,6.2-0.9,9.5C223.2,90.2,223.5,86.8,225.1,84.5z"/>
		<path class="st9" d="M144.3,103.6c2.2,0.5,3.7-0.9,3-3c-0.8-2.3-0.5-4.5-0.2-6.7c0.3-2,0.8-4,1.1-6.1c0.2-1.4,0.2-3-0.2-4.3
			c-0.8-3.3-3.7-4.5-6.7-2.8c-1.9,1.1-3.1,2.8-4,4.8c-2,5.6-1.1,10.7,2.3,15.4C140.9,102.3,142.5,103.2,144.3,103.6z M143.1,85.2
			c0.6,1.6,0,6.1-1.2,9.3C140.3,91.3,140.8,88.2,143.1,85.2z"/>
		<path class="st9" d="M244.4,98c-1.6-0.6-3.4-0.8-5-0.6c-4.7,0.3-8.7,2.6-12.3,5.6c-0.8,0.6-1.6,1.4-2.5,2
			c-0.8,0.6-1.2,1.2-1.1,2.3c0.2,0.9,0.8,1.6,1.7,1.9c0.3,0.2,0.8,0.2,1.2,0.3c5.4,0.9,10.9,0.5,16.2-1.6c1.9-0.6,3.6-1.7,4.3-3.3
			C248.2,101.8,247.2,98.9,244.4,98z M232.9,105c2.3-2.5,6.4-3.6,9.8-2.6C240.3,104,236.4,105.1,232.9,105z"/>
		<path class="st9" d="M126.2,98.3c0,0,0.2,0.2,0.3,0.2c1.1,0.6,2,0.6,3-0.2c0.9-0.8,1.1-2,0.5-3c-1.7-2.8-1.1-5.6-0.2-8.4
			c0.5-1.6,0.8-3.3,0.9-5c0.2-2.5-1.2-4.5-3.4-5.3c-2-0.8-4.3-0.2-5.7,2c-0.9,1.4-1.7,3.1-2.2,4.8C117.8,88.6,120.6,95.3,126.2,98.3
			z M125.7,81.2c0.5,2.6-0.9,4.8-1.4,7.5C123,85.7,123.5,82.9,125.7,81.2z"/>
		<path class="st9" d="M234.6,91.1c0.9,0.6,1.9,0.5,2.8-0.2c3.7-2.8,7.1-5.6,9.5-9.9c0.3-1.9,0.8-3.9,0.8-5.7c0-2.2-1.1-3.9-3.3-4.8
			c-2.2-0.8-4,0-5.4,1.6c-0.5,0.5-0.9,0.9-1.2,1.6c-0.6,1.1-1.1,2.3-1.6,3.6c-1.1,3.6-0.8,7.5-2.5,10.9
			C232.9,89.1,233.5,90.5,234.6,91.1z M242.3,75.4c0.6,2.6-0.5,4.7-2.3,6.4C240.2,79.5,240.5,77.1,242.3,75.4z"/>
		<path class="st9" d="M129.6,107.3c1.6-0.6,1.7-2.2,0.8-3.4c-1.2-1.9-3-2.8-5.1-2.8c-4.5-0.2-8.4,1.4-11.5,4.8
			c-0.5,0.6-0.9,1.4-1.2,1.7c-0.9,2.3-0.9,4.3,0.6,6.1c1.4,1.7,3.4,2,5.3,1.2c1.7-0.6,3.4-1.6,4.8-2.6
			C125.4,110.4,127.1,108.4,129.6,107.3z M116.4,110.2c1.4-2.6,3.3-3.7,5.7-4C120.9,108.1,119.5,109.9,116.4,110.2z"/>
	</g>
	<path class="st8" d="M318.9,172.7c-0.2-0.2-0.4-0.3-0.6-0.4c-1.8-0.6-3.7-1.2-5.5-1.9c-2.2-0.9-3.4-2.3-5.2-3.7
		c-1.6-1.2-3.2-2-5.2-2.2c-3-0.3-5.8,1.1-8.7,1.8c-5.1,1.2-8.6-1-13-3.2c-5-2.5-10.4-3.3-15.7-1.3c-6.1,2.2-11.9,9.6-18.5,9.4
		c-1,0-1.5,0.7-1.5,1.4c-0.1,0.7,0.2,1.5,1.1,1.8c5,1.2,9.4-0.7,13.8-2.9c3-1.5,6-3.4,9.4-4c4.6-0.7,7.2,2.2,10.7,4.5
		c5.2,3.5,11.2,3.6,17.2,2.2c4.4-1,7.6-0.3,11.7,1.1c3.3,1.1,6.6,1,10,0.4C320.4,175.4,320.1,173.3,318.9,172.7z"/>
</g>
</svg>
