<?xml version="1.0" encoding="utf-8"?>
<!-- Generator: Adobe Illustrator 16.0.0, SVG Export Plug-In . SVG Version: 6.00 Build 0)  -->
<!DOCTYPE svg PUBLIC "-//W3C//DTD SVG 1.1//EN" "http://www.w3.org/Graphics/SVG/1.1/DTD/svg11.dtd">
<svg version="1.1" id="Layer_1" xmlns="http://www.w3.org/2000/svg" xmlns:xlink="http://www.w3.org/1999/xlink" x="0px" y="0px"
	 width="56.693px" height="56.693px" viewBox="0 0 56.693 56.693" enable-background="new 0 0 56.693 56.693" xml:space="preserve">
<g>
	
		<path fill="none" stroke="#343434" stroke-width="1.44" stroke-linecap="round" stroke-linejoin="round" stroke-miterlimit="22.9256" d="
		M21.558,32.798c-0.623,0.527-0.978,1.137-0.978,1.785c0,2.027,3.477,3.672,7.766,3.672c4.29-0.002,7.767-1.645,7.767-3.672
		c0-0.516-0.225-1.006-0.629-1.451"/>
	
		<path fill="none" stroke="#343434" stroke-width="1.44" stroke-linecap="round" stroke-linejoin="round" stroke-miterlimit="22.9256" d="
		M19.838,30.865c-2.343,1.029-3.833,2.547-3.833,4.236c0,3.332,5.525,6.035,12.341,6.035c6.815-0.002,12.341-2.703,12.341-6.035
		c0-1.557-1.299-2.961-3.365-3.955"/>
	
		<path fill="none" stroke="#343434" stroke-width="1.44" stroke-linecap="round" stroke-linejoin="round" stroke-miterlimit="22.9256" d="
		M18.119,28.929c-4.063,1.536-6.687,3.961-6.687,6.69c0,4.639,7.572,8.398,16.914,8.398c9.343,0,16.915-3.76,16.915-8.398
		c0-2.596-2.373-4.918-6.102-6.458"/>
	
		<path fill="none" stroke="#343434" stroke-width="1.44" stroke-linecap="round" stroke-linejoin="round" stroke-miterlimit="22.9256" d="
		M21.774,26.018c0,4.116,3.169,7.454,7.079,7.454c3.911,0,7.081-3.338,7.081-7.454c0-4.564-5.467-7.757-7.081-13.342
		C26.671,18.187,21.774,21.454,21.774,26.018L21.774,26.018z"/>
	
		<path fill="none" stroke="#343434" stroke-width="1.44" stroke-linecap="round" stroke-linejoin="round" stroke-miterlimit="22.9256" d="
		M28.71,30.994c2.62,0,4.723-2.237,4.745-4.997c0-1.403-0.703-2.604-1.598-3.824"/>
</g>
</svg>
