<?xml version="1.0" encoding="utf-8"?>
<!-- Generator: Adobe Illustrator 16.0.0, SVG Export Plug-In . SVG Version: 6.00 Build 0)  -->
<!DOCTYPE svg PUBLIC "-//W3C//DTD SVG 1.1//EN" "http://www.w3.org/Graphics/SVG/1.1/DTD/svg11.dtd">
<svg version="1.1" id="Layer_1" xmlns="http://www.w3.org/2000/svg" xmlns:xlink="http://www.w3.org/1999/xlink" x="0px" y="0px"
	 width="56.693px" height="56.693px" viewBox="0 0 56.693 56.693" enable-background="new 0 0 56.693 56.693" xml:space="preserve">
<g>
	
		<path fill="none" stroke="#ffff00" stroke-width="1.44" stroke-linecap="round" stroke-linejoin="round" stroke-miterlimit="22.9256" d="
		M28.347,17.942c5.747,0,10.405,4.658,10.405,10.404S34.093,38.75,28.347,38.75c-5.746,0-10.404-4.658-10.404-10.404
		S22.601,17.942,28.347,17.942L28.347,17.942z"/>
	
		<line fill="none" stroke="#ffd700" stroke-width="1.44" stroke-linecap="round" stroke-linejoin="round" stroke-miterlimit="22.9256" x1="27.956" y1="14.883" x2="27.952" y2="11.197"/>
	
		<line fill="none" stroke="#ffd700" stroke-width="1.44" stroke-linecap="round" stroke-linejoin="round" stroke-miterlimit="22.9256" x1="21.277" y1="16.882" x2="19.43" y2="13.692"/>
	
		<line fill="none" stroke="#ffd700" stroke-width="1.44" stroke-linecap="round" stroke-linejoin="round" stroke-miterlimit="22.9256" x1="16.492" y1="21.953" x2="13.297" y2="20.113"/>
	
		<line fill="none" stroke="#ffd700" stroke-width="1.44" stroke-linecap="round" stroke-linejoin="round" stroke-miterlimit="22.9256" x1="14.883" y1="28.737" x2="11.197" y2="28.741"/>
	
		<line fill="none" stroke="#ffd700" stroke-width="1.44" stroke-linecap="round" stroke-linejoin="round" stroke-miterlimit="22.9256" x1="16.882" y1="35.417" x2="13.692" y2="37.262"/>
	
		<line fill="none" stroke="#ffd700" stroke-width="1.44" stroke-linecap="round" stroke-linejoin="round" stroke-miterlimit="22.9256" x1="21.953" y1="40.201" x2="20.113" y2="43.395"/>
	
		<line fill="none" stroke="#ffd700" stroke-width="1.44" stroke-linecap="round" stroke-linejoin="round" stroke-miterlimit="22.9256" x1="28.737" y1="41.809" x2="28.741" y2="45.496"/>
	
		<line fill="none" stroke="#ffd700" stroke-width="1.44" stroke-linecap="round" stroke-linejoin="round" stroke-miterlimit="22.9256" x1="35.417" y1="39.811" x2="37.263" y2="43"/>
	
		<line fill="none" stroke="#ffd700" stroke-width="1.44" stroke-linecap="round" stroke-linejoin="round" stroke-miterlimit="22.9256" x1="40.201" y1="34.74" x2="43.396" y2="36.58"/>
	
		<line fill="none" stroke="#ffd700" stroke-width="1.44" stroke-linecap="round" stroke-linejoin="round" stroke-miterlimit="22.9256" x1="41.81" y1="27.957" x2="45.496" y2="27.952"/>
	
		<line fill="none" stroke="#ffd700" stroke-width="1.44" stroke-linecap="round" stroke-linejoin="round" stroke-miterlimit="22.9256" x1="39.812" y1="21.277" x2="43.001" y2="19.43"/>
	
		<line fill="none" stroke="#ffd700" stroke-width="1.44" stroke-linecap="round" stroke-linejoin="round" stroke-miterlimit="22.9256" x1="34.74" y1="16.492" x2="36.58" y2="13.297"/>
</g>
</svg>
