<?xml version="1.0" encoding="utf-8"?>
<!-- Generator: Adobe Illustrator 16.0.0, SVG Export Plug-In . SVG Version: 6.00 Build 0)  -->
<!DOCTYPE svg PUBLIC "-//W3C//DTD SVG 1.1//EN" "http://www.w3.org/Graphics/SVG/1.1/DTD/svg11.dtd">
<svg version="1.1" id="Layer_1" xmlns="http://www.w3.org/2000/svg" xmlns:xlink="http://www.w3.org/1999/xlink" x="0px" y="0px"
	 width="56.693px" height="56.693px" viewBox="0 0 56.693 56.693" enable-background="new 0 0 56.693 56.693" xml:space="preserve">
<g>
	
		<path fill="none" stroke="#343434" stroke-width="1.44" stroke-linecap="round" stroke-linejoin="round" stroke-miterlimit="22.9256" d="
		M44.046,45.161c-2.814-1.751-8.92-2.964-15.998-2.964c-6.801,0-12.703,1.119-15.652,2.76"/>
	
		<path fill="none" stroke="#343434" stroke-width="1.44" stroke-linecap="round" stroke-linejoin="round" stroke-miterlimit="22.9256" d="
		M34.884,42.053l0.014-14.243c-1.133-2.495-0.309-8.004,1.055-10.499"/>
	
		<path fill="none" stroke="#343434" stroke-width="1.44" stroke-linecap="round" stroke-linejoin="round" stroke-miterlimit="22.9256" d="
		M35.064,28.15c2.674-0.806,4.824-1.597,5.643-3.932"/>
	
		<path fill="none" stroke="#343434" stroke-width="1.44" stroke-linecap="round" stroke-linejoin="round" stroke-miterlimit="22.9256" d="
		M31.958,41.681c0.012-2.543,0.326-9.605-0.166-9.916c-1.684-1.057-2.791-0.546-4.249-3.406"/>
	
		<path fill="none" stroke="#343434" stroke-width="1.44" stroke-linecap="round" stroke-linejoin="round" stroke-miterlimit="22.9256" d="
		M31.769,35.775c-9.081,2.309-10.83-10.451-4.645-13.886c-0.251-0.872-0.354-1.823-0.279-2.82c0.313-4.162,3.604-7.537,7.352-7.537
		c3.436,0,6.061,2.835,6.234,6.513c2.977,0.471,5.078,3.345,4.818,6.82c-0.227,3.007-2.152,5.563-4.641,6.504"/>
	
		<path fill="none" stroke="#343434" stroke-width="1.44" stroke-linecap="round" stroke-linejoin="round" stroke-miterlimit="22.9256" d="
		M26.859,20.493c-2.386-0.529-4.726-4.178-5.602-6.551c-1.241,4.077-3.446,6.514-6.366,7.735c1.197,0.697,2.414,1.219,3.643,1.54
		c-1.395,2.573-2.91,4.305-5.369,5.299c1.217,0.757,2.576,1.298,4.004,1.638c-1.593,2.419-2.87,4.059-5.747,5.018
		c4.65,2.865,11.26,3.482,17.247,1.188"/>
	
		<line fill="none" stroke="#343434" stroke-width="1.44" stroke-linecap="round" stroke-linejoin="round" stroke-miterlimit="22.9256" x1="20.305" y1="37.785" x2="20.305" y2="42.203"/>
	
		<path fill="none" stroke="#343434" stroke-width="1.44" stroke-linecap="round" stroke-linejoin="round" stroke-miterlimit="22.9256" d="
		M42.115,30.753c0.225,0.892,0.328,1.877,0.072,2.825c-0.867,3.222-4.822,3.927-6.797,2.366"/>
	
		<line fill="none" stroke="#343434" stroke-width="1.44" stroke-linecap="round" stroke-linejoin="round" stroke-miterlimit="22.9256" x1="23.131" y1="37.801" x2="23.131" y2="41.784"/>
	
		<path fill="none" stroke="#343434" stroke-width="1.44" stroke-linecap="round" stroke-linejoin="round" stroke-miterlimit="22.9256" d="
		M33.929,22.508c-1.033-0.843-1.729-1.63-1.92-3.137"/>
</g>
</svg>
