<?xml version="1.0" encoding="utf-8"?>
<!-- Generator: Adobe Illustrator 21.1.0, SVG Export Plug-In . SVG Version: 6.00 Build 0)  -->
<svg version="1.1" id="Calque_1" xmlns="http://www.w3.org/2000/svg" xmlns:xlink="http://www.w3.org/1999/xlink" x="0px" y="0px"
	 viewBox="0 0 432 432" style="enable-background:new 0 0 432 432;" xml:space="preserve">
<style type="text/css">
	.st0{fill:#BE1622;}
	.st1{fill:#C69C6C;}
	.st2{fill:#F39200;}
	.st3{fill:#F9B03D;}
	.st4{fill:#5BA7AD;}
	.st5{fill:#3F7579;}
	.st6{fill:#1B1B1B;}
	.st7{fill:#FFFFFF;}
	.st8{fill:#D8B6C4;}
	.st9{fill:#765844;}
	.st10{fill:#E9B2C5;}
	.st11{fill:#C7B29A;}
	.st12{fill:#EDBD7D;}
	.st13{fill:#1D71B8;}
	.st14{fill:#95C11F;}
	.st15{fill:#E94E1B;}
	.st16{fill:#575756;}
	.st17{fill:#844C16;}
	.st18{fill:#E50071;}
	.st19{fill:#AF175D;}
	.st20{fill:#E4051E;}
	.st21{fill:#13110C;}
	.st22{fill:#891A2C;}
	.st23{fill:#28295F;}
	.st24{fill:#CECFBC;}
	.st25{fill:#981F24;}
	.st26{fill:#020203;}
	.st27{fill:#BC2333;}
	.st28{fill:#AD1917;}
	.st29{fill:#04683B;}
	.st30{fill:#049348;}
	.st31{fill:#2D3D8D;}
	.st32{fill:#F39233;}
	.st33{fill:#EB5C35;}
	.st34{fill:#AA1917;}
	.st35{fill:#55514F;}
	.st36{fill:#20376D;}
	.st37{fill:#B3BBC5;}
	.st38{fill:#BAC6BC;}
	.st39{fill:#B4BA8C;}
	.st40{fill:#746458;}
	.st41{fill:#343434;}
	.st42{fill:#CEC3BC;}
	.st43{fill:#FBBA0E;}
	.st44{fill:#FED98D;}
	.st45{fill:#676767;}
	.st46{fill:#8DBE22;}
	.st47{fill:#D0E1A4;}
	.st48{fill:#EFE8E4;}
	.st49{fill:#754695;}
	.st50{fill:#A78BC0;}
	.st51{fill:#8EC045;}
	.st52{fill:#0D71B9;}
	.st53{fill:#EAC686;}
	.st54{fill:#D24063;}
	.st55{fill:#E2A11A;}
	.st56{fill:#E9BD71;}
	.st57{fill:#E8423E;}
	.st58{fill:#F8AE4C;}
	.st59{fill:#00A19A;}
	.st60{fill:#2578B9;}
	.st61{fill:#A29F9D;}
	.st62{fill:#D2B89A;}
	.st63{fill:#E6C2A9;}
	.st64{fill:#6E3B11;}
	.st65{fill:#9B6228;}
	.st66{fill:#C9A1CB;}
	.st67{fill:#F8AB00;}
	.st68{fill:#BEBBBB;}
	.st69{fill:#066938;}
	.st70{fill:#36A36A;}
	.st71{fill:#4F702A;}
	.st72{fill:#A4191E;}
	.st73{fill:#3AAA35;}
	.st74{fill:#D01419;}
	.st75{fill:#CA1527;}
	.st76{fill:#684A40;}
	.st77{fill:#9A7B65;}
	.st78{fill:#FBB700;}
	.st79{fill:#82BB26;}
	.st80{fill:#00A8E4;}
	.st81{fill:#CEA57B;}
	.st82{fill:#57B031;}
	.st83{fill:#E5251F;}
	.st84{fill:#EFDD37;}
	.st85{fill:#59C4E9;}
	.st86{fill:#F08017;}
	.st87{fill:#974393;}
	.st88{fill:#F9EA31;}
	.st89{fill:#C1292E;}
	.st90{fill:#F2D77E;}
	.st91{fill:#E6332A;}
	.st92{fill:#29235C;}
	.st93{fill:#3C3C3B;}
	.st94{fill:#2FAC66;}
	.st95{fill:#2D2E83;}
	.st96{fill:#645B51;}
	.st97{fill:#36A9E1;}
	.st98{fill:#312783;}
	.st99{fill:#2E4959;}
	.st100{fill:#5F8699;}
	.st101{fill:#172B35;}
	.st102{fill:#C3D5E4;}
	.st103{fill:#7B9135;}
	.st104{fill:#E59546;}
	.st105{fill:#B2C65F;}
	.st106{fill:#85BBB7;}
	.st107{fill:#F39323;}
	.st108{fill:#FFFFFE;}
	.st109{fill:#EFD2AC;}
	.st110{fill:#C0E0EF;}
	.st111{fill:#EFDAEC;}
	.st112{fill:#63B8A4;}
	.st113{fill:#BDCCD4;}
	.st114{fill:#8C633A;}
	.st115{fill:#CA9E67;}
	.st116{fill:#7D4E24;}
	.st117{fill:#B8B569;}
	.st118{fill:#E8C515;}
	.st119{fill:#A5A258;}
	.st120{fill:#AA884D;}
	.st121{fill:#9E994B;}
	.st122{fill:#D1A479;}
	.st123{fill:#936037;}
	.st124{fill:#FAFAFA;}
	.st125{fill:#98CDC5;}
	.st126{fill:#E1EBE8;}
	.st127{fill:#DDCE9E;}
	.st128{fill:#A67D52;}
	.st129{fill:#437156;}
	.st130{fill:#4F8366;}
	.st131{fill:#8F6947;}
	.st132{fill:#856143;}
	.st133{fill:#171512;}
	.st134{fill:#AA191B;}
	.st135{fill:#1C1A38;}
	.st136{fill:#8E8C38;}
	.st137{fill:#CAC955;}
	.st138{fill:#6C6A29;}
	.st139{fill:#D8D564;}
	.st140{fill:#5CABD5;}
	.st141{fill:#70B4D9;}
	.st142{fill:#9A9999;}
	.st143{fill:#B4B4B4;}
	.st144{fill:#ABAA3D;}
	.st145{fill:#D7DB2F;}
	.st146{fill:#B8CED8;}
	.st147{fill:#05AB9E;}
	.st148{fill:#DAB828;}
	.st149{fill:#EB7533;}
	.st150{fill:#EDE4CA;}
	.st151{fill:#575452;}
	.st152{fill:#F9F6F4;}
	.st153{fill:#94B2AA;}
	.st154{fill:#D8D7C4;}
	.st155{fill:#BAD68E;}
	.st156{fill:#F0E6E1;}
	.st157{fill:#BFD786;}
	.st158{fill:#E9E499;}
	.st159{fill:#A2D3C2;}
	.st160{fill:#EB7976;}
	.st161{fill:#EEF4E7;}
	.st162{fill:#EADA7F;}
	.st163{fill:#B2D9C2;}
	.st164{fill:#43B284;}
	.st165{fill:#9AC028;}
	.st166{fill:#D8AD80;}
	.st167{fill:#F2F2F2;}
	.st168{fill:#767574;}
	.st169{fill:#CDC8C6;}
	.st170{fill:#634E42;}
	.st171{fill:#E4E0DF;}
	.st172{fill:#D98F53;}
	.st173{fill:#E2CAB5;}
	.st174{fill:#B61824;}
	.st175{fill:#E2BAA0;}
	.st176{fill:#CF455A;}
	.st177{fill:#648546;}
	.st178{fill:#4F6834;}
	.st179{fill:#91BB64;}
	.st180{fill:#D1CE4D;}
	.st181{fill:#CFCE67;}
	.st182{fill:#E5E4BD;}
	.st183{fill:#A69F28;}
	.st184{fill:#E3BF32;}
	.st185{fill:#E68024;}
	.st186{fill:#D27444;}
	.st187{fill:#D1B05A;}
	.st188{fill:#F4E3BD;}
	.st189{fill:#668852;}
	.st190{fill:#A3C18F;}
	.st191{fill:#D8B41E;}
	.st192{fill:#E2DBBA;}
	.st193{fill:#603914;}
	.st194{fill:#CF1042;}
	.st195{fill:#2F8A7F;}
	.st196{fill:#D19A69;}
	.st197{fill:#E9C3A4;}
	.st198{fill:#F2BF21;}
	.st199{fill:#CFD3D1;}
	.st200{fill:#E9F2ED;}
	.st201{fill:#4E4D4D;}
	.st202{fill:#C4E2D0;}
	.st203{fill:#F3F3F3;}
	.st204{fill:#F8FAF9;}
	.st205{fill:#C6B5A8;}
	.st206{fill:#F2F1E7;}
	.st207{fill:#CEC87B;}
	.st208{fill:#C7E4E5;}
	.st209{fill:#D4894A;}
	.st210{fill:#FBFDFA;}
	.st211{fill:#B4CD5F;}
	.st212{fill:#1F1B15;}
	.st213{fill:#161210;}
	.st214{fill:#A8D1D2;}
	.st215{fill:#8E6640;}
	.st216{fill:#B22518;}
	.st217{fill:#683F1D;}
	.st218{fill:#F0F7F7;}
	.st219{fill:#CD924B;}
	.st220{fill:#CDCCCC;}
	.st221{fill:#F2D7C0;}
	.st222{fill:#B21924;}
	.st223{fill:#EDCEB1;}
	.st224{fill:#7D552C;}
	.st225{fill:#A0BC6F;}
	.st226{fill:#94AD65;}
	.st227{fill:#E7E6E6;}
	.st228{fill:#9FD6DB;}
	.st229{fill:#EACD7F;}
	.st230{fill:#E28C52;}
	.st231{fill:#141414;}
	.st232{fill:#E97E28;}
	.st233{fill:#D0C657;}
	.st234{fill:#F3BC95;}
	.st235{fill:#FBFDFC;}
	.st236{fill:#CA252F;}
	.st237{fill:#B8B6B7;}
	.st238{fill:#808181;}
	.st239{fill:#F7F5DB;}
	.st240{fill:#CA1618;}
	.st241{fill:#FDC30B;}
	.st242{fill:#5F3917;}
	.st243{fill:#FFDA36;}
	.st244{fill:#AB7049;}
	.st245{fill:#619DCF;}
	.st246{fill:#45779A;}
	.st247{fill:#68AFA1;}
	.st248{fill:#108E77;}
	.st249{fill:#A5779F;}
	.st250{fill:#008D36;}
	.st251{fill:#E83E49;}
	.st252{fill:#A12D38;}
	.st253{fill-rule:evenodd;clip-rule:evenodd;fill:#677124;}
</style>
<g>
	<g>
		<path class="st32" d="M167,120.5c3.9-1.5,19.7-17.6,23.8-22.8c1.7-2.2,0.6-3.2-3.6-7.8c-4.1-4.5-4.6-3.7-26.4,24.3
			C159.2,116.3,164.3,119.7,167,120.5z"/>
		<path class="st32" d="M208.8,130.6c-0.5-6.1-1.3-5.7-35.8,2.8c-2.5,0.6-0.5,6.5,1,8.8c3.9,1.3,26.4-1.7,32.8-3.3
			C209.5,138.2,209.3,136.7,208.8,130.6z"/>
		<path class="st32" d="M170.2,154.1c-2.3-1.1-4.5,4.8-4.6,7.5c2.3,3.4,21.8,15,27.8,17.7c2.5,1.1,3.3-0.2,6.7-5.3
			C203.4,168.9,202.5,168.7,170.2,154.1z"/>
		<path class="st32" d="M146.9,171.6c-0.3,4.1,7.8,25.3,10.9,31.1c1.3,2.4,2.7,1.9,8.5,0c5.8-1.9,5.2-2.6-11.2-34.1
			C154,166.3,148.7,169.6,146.9,171.6z"/>
		<path class="st32" d="M126,168c-2.8,3.1-9.5,24.7-10.7,31.2c-0.5,2.7,0.9,3.1,6.7,5.2c5.7,2.1,5.7,1.2,12.3-33.7
			C134.8,168.2,128.6,167.5,126,168z"/>
		<path class="st32" d="M111.8,152.2c-4.1,0.7-22.7,13.6-27.7,17.9c-2.1,1.8-1.2,3,2.1,8.3c3.2,5.2,3.8,4.4,30.5-18.9
			C118.7,157.8,114.2,153.4,111.8,152.2z"/>
		<path class="st32" d="M110.4,131c-3.6-2-26.3-3.4-32.8-3c-2.8,0.2-2.8,1.7-3.5,7.8c-0.7,6.1,0.2,5.8,35.7,4
			C112.3,139.7,111.5,133.5,110.4,131z"/>
		<path class="st32" d="M116.5,120c2.1,1.5,5.3-3.9,5.9-6.5c-1.6-3.8-18.6-18.9-24-22.7c-2.3-1.6-3.2-0.4-7.6,4
			C86.6,99.1,87.5,99.5,116.5,120z"/>
		<path class="st32" d="M134.7,74.3c-6.1,0.4-5.7,1.2,2.2,35.9c0.6,2.5,6.5,0.7,8.8-0.9c1.3-3.9-1.2-26.5-2.7-32.9
			C142.4,73.7,140.9,74,134.7,74.3z"/>
	</g>
	<g>
		<path class="st33" d="M154.2,113c2.8,0.8,1-5.4,7-5.9c0,0,0,0,0,0.1c5.7,0,7.6-4.4,6.2-8.5c-1.3-3.8-3-7-1.1-8.5
			c3.2-2.4,12.6,1.5,11.5-6.8c-1.3-9.3-4.1-11.2,0-13.5c2.6-1.5,4.2,0.3,5.3,1.4c1.5,1.4,3.4-0.9,1.8-2.3
			c-6.6-5.6-13.1-0.2-11.9,5.5c0.6,2.7,1.7,6.8,2,9.7c0.4,4.5-6.1,0-10.5,3.8c-6.3,5.4,6.9,16.5-3.9,16.3
			C155,104.1,151.2,112.2,154.2,113z"/>
		<path class="st33" d="M180,124.7c-4.4-3.7-9.8,0.5-10.4,1.2c-0.8,1,0.3,2.6,1.6,2.1c4.9-1.9,3.6-3.3,7.5-0.8c0,0,0,0,0,0.1
			c3,2.4,5.5,2.3,7.7,0.6c5.6-4.3,1.6-15.9,12.2-7.5c9.1,7.1,9.6-12.7,15.4-12.1c2,0.2,3.3,0.9,3.8,3c2.1,9.6,7.3-7.1-5.1-5.8
			c-8,0.8-6.1,18.8-13.8,11.4c-9.2-8.9-12.2,5.9-13.4,7.9C184.2,127.1,182.1,126.4,180,124.7z"/>
		<path class="st33" d="M216.4,155.2c-5.3,0.4-13.3,10.1-14.5,1.2c-0.7-4.7-4.2-7.4-7.4-6.4c-3,0.9-3.9,2-5.9,3.2
			c-8.7,5.4-4-5.2-10.9-7c-7.6-2-5.9,1.6-4.7,2c4.8,1.5,4.9-0.4,6.4,4.1c0,0,0,0-0.1,0c0.9,3.7,3,5.2,5.7,5.2
			c6.9,0.1,11-11.7,14.3,1.6c2.8,11.4,15.4-4.5,20.1,0.5c2.1,2.2,0.6,4.4-0.1,5.5c-0.9,1.5,1.7,4.5,3.7-1.1
			C224.6,159.8,220.7,154.9,216.4,155.2z"/>
		<path class="st33" d="M179.6,189.3c6.5-11.2-9.3-10.7-10.8-11.1c-2.6-0.8-2.5-3-1.3-5.4c2.5-5.1-2.8-9.5-3.7-9.8
			c-1.2-0.5-2.5,0.9-1.6,2.1c2.9,4.1,4.1,2.7,2.5,7.2c0,0,0,0-0.1,0c-2.5,5.4,1,8.7,5.1,9.2c10,1,9.6,1.5,6.3,8.6
			c-4.7,10.3,14.6,6.4,15.4,12.1c0.8,5.7-7,4.7-3.8,7.3c1.5,1.2,8.7-2,6.1-9.3C191.2,192.5,174.2,198.6,179.6,189.3z"/>
		<path class="st33" d="M141.8,201.4c4.5-1.8,6.1-5.9,4.5-8.7c-2.5-4.3-9.8-7.8-5.4-11c2.9-2.2,5.7-0.9,5.1-9.9
			c-0.1-2.2-2.7-2-2.8-0.3c-0.3,5.2,1.5,4.7-2.4,7.2c0,0,0,0,0-0.1c-13.8,7,11.2,14.6,0.6,19.9c-15.5,7.8,6.3,13.7,1.7,20.8
			c-1.6,2.5-4,1.7-5.4,1.2c-2-0.6-2.6,2.4-0.6,2.8c5,1.2,8-0.6,9.4-4.7c1.6-4.7-3.7-7.3-7.5-13.4
			C137.6,203.2,139.7,202.2,141.8,201.4z"/>
		<path class="st33" d="M124.1,164.8c-3.5,3.9-1.7,4.6-6.4,4.2c0,0,0,0,0-0.1c-5.6-1.1-8.3,2.9-7.7,7.1c1.2,8.9,1.8,9.9-6.8,8.2
			c-11.3-2.2-2.7,15.7-8.2,17.9c-1.8,0.7-3.3,0.7-4.7-0.9c-6.4-7.6-2.8,9.3,7.2,2.8c6.7-4.4-3.3-19.5,7-16.4c4.6,1.4,8.4-0.8,8.9-4
			c0.7-5-2.9-12.2,2.5-12c1.6,0,5.2,1.8,7.9-1.6c0.5-0.7,2.4-3.1,2.6-4C126.7,164.6,125.1,163.7,124.1,164.8z"/>
		<path class="st33" d="M102.8,148.1c2.8,2.3,2.2,5.3,10.9,2.6c2.1-0.7,1.3-3.1-0.4-2.8c-5.1,1-4.2,2.6-7.6-0.7c0,0,0,0,0,0
			c-8.3-9.7-12.2,8.1-16.1,7.2c-3.9-0.8-7.1-10.6-12.7-4.2c-6.1,7-5.8,10.4-10.2,8.9c-2.8-1-2.5-3.4-2.5-4.9c0.1-2-2.9-2-2.9,0.1
			c0,7.8,6.8,9.2,10.1,7.2c5.1-3.1,7-15.3,12.4-7.7c1.3,1.9,3,3.2,5.3,3.5C96.8,158.3,97.2,143.4,102.8,148.1z"/>
		<path class="st33" d="M76.7,112.4c10-2.6,12.3-4.5,11.9,1.8c-0.3,4.8,2.8,8,6,7.7c3.1-0.3,4.2-1.2,6.4-2c9.5-3.7,2.9,5.9,9.3,9
			c7.1,3.4,6.1-0.5,5-1c-4.5-2.3-4.9-0.5-5.5-5.2c0,0,0,0,0.1,0c-0.3-5.7-4.7-7.4-8.7-5.8c-8.3,3.3-9.2,4.1-9.6-4.7
			c-0.5-11.4-16,1.5-19.7-4.2c-1.6-2.5,0.1-4.2,1.1-5.4c1.3-1.5-1-3.4-2.3-1.7C65.3,107.6,71,113.9,76.7,112.4z"/>
		<path class="st33" d="M118.6,79.7c10.5,5.4-0.2,5,0,12.7c0.2,8.3,17.2,5.1,10.2,13.3c-3.8,4.5,0.5,12,2.7,10.4
			c2.4-1.7-3.6-4.1-0.2-9.2c0,0,0,0,0.1,0c9.8-11.9-16.1-8.9-8.5-18c6.9-8.3,2.4-9-8.2-14.4c-2.8-1.4-2.3-6.3,1.3-7
			c9.7-2-6.9-6.9-5.9,5C110.4,76.5,114,77.3,118.6,79.7z"/>
		<g>
			<path class="st33" d="M166.4,138.4c4.2,28.9-39.1,37.6-45.6,6.8C113.7,111.9,162,108.1,166.4,138.4z M124.1,146.4
				c0,0-0.1,0.1-0.1,0.1c5.9,17.6,30.9,20.7,38.1,1.5c7.9-21.1-25-39.6-35.8-15.8c-5.4,12,9.1,25.1,22.3,17.3
				c6.2-3.7,7.1-10.1,3.5-14.9c-6.6-8.7-20.3-3.1-17.5,4.7c2.5,6.7,11.9,4.5,11.5,0.8c-0.5-4.9-5.1-4-4.8-1.6c0.2,1.8-2.2,2.3-2.9,0
				c-1.7-5.7,9.8-9.1,11.2,1c1.2,8.3-14.9,11.6-18.4,0.5c-5-15.8,26.4-19.3,26.6,0.7C157.8,154.7,134.1,162.4,124.1,146.4z"/>
		</g>
	</g>
</g>
<g>
	<g>
		<g>
			<path class="st33" d="M339.7,141.5c0-0.6-0.3-1.1-0.9-1.4c-0.7-0.4-1.4-0.2-2,0.3c-0.7,0.6-1.4,1.2-2.1,1.8c-3.5,3-6.9,6-10.4,9
				c-0.1,0.1-0.3,0.3-0.4,0.4c-0.5,0.6-0.6,1.5-0.2,2.1c0.5,0.7,1.3,0.9,2.1,0.6c0.4-0.2,0.7-0.4,1-0.6c2.9-2.4,5.7-4.9,8.6-7.4
				c1.2-1,2.3-2,3.5-3C339.4,142.6,339.8,142.2,339.7,141.5z"/>
			<path class="st33" d="M311.2,124.1C311.1,124.1,311.1,124.1,311.2,124.1c-0.1-0.1-0.1-0.3-0.1-0.4c0-1-0.6-1.8-1.5-1.9
				c-0.9-0.1-1.7,0.5-1.9,1.5c-0.1,0.8-0.2,1.6-0.3,2.3c-0.5,2.5-1.1,5-1.6,7.5c-0.3,1.2-0.6,2.4-0.8,3.5c-0.2,0.9,0.3,1.8,1.1,2
				c0.9,0.3,1.7-0.2,2.1-1.1c0.1-0.2,0.2-0.5,0.2-0.8c0.6-2.6,1.2-5.2,1.8-7.8C310.6,127.4,310.8,125.7,311.2,124.1z"/>
			<path class="st33" d="M352.4,217.3c-0.8-0.5-1.6-1-2.3-1.4c-3.9-2.4-7.8-4.8-11.7-7.3c-0.2-0.1-0.3-0.2-0.5-0.3
				c-0.8-0.3-1.6-0.1-2,0.5c-0.5,0.6-0.5,1.5,0.1,2.2c0.3,0.3,0.6,0.5,0.9,0.7c3.2,2,6.4,4,9.6,6c1.3,0.8,2.6,1.6,3.9,2.4
				c0.5,0.3,1.1,0.5,1.8,0.3c0.6-0.2,1-0.6,1.1-1.2C353.4,218.3,353.1,217.7,352.4,217.3z"/>
			<path class="st33" d="M361.9,185.7c-0.2-0.9-1-1.5-2-1.3c-0.8,0.1-1.5,0.3-2.3,0.4c-2.5,0.3-5.1,0.5-7.6,0.7
				c-1.2,0.1-2.4,0.2-3.6,0.3c-0.9,0.1-1.6,0.8-1.6,1.7c0,0.9,0.7,1.6,1.7,1.7c0.3,0,0.5,0,0.8,0c2.6-0.2,5.3-0.4,7.9-0.6
				c1.7-0.2,3.4-0.4,5.1-0.6c0,0,0-0.1,0-0.1c0.1,0,0.3-0.1,0.4-0.1C361.5,187.4,362.1,186.6,361.9,185.7z"/>
			<path class="st33" d="M286.8,236.8c-0.8-0.3-1.6,0-2,0.7c-0.2,0.3-0.3,0.7-0.4,1.1c-0.9,3.6-1.9,7.3-2.8,10.9
				c-0.4,1.5-0.7,3-1.1,4.5c-0.2,0.6-0.2,1.2,0.2,1.8c0.4,0.5,0.9,0.8,1.5,0.7c0.8-0.1,1.3-0.6,1.5-1.4c0.2-0.9,0.4-1.8,0.7-2.7
				c1.1-4.4,2.3-8.9,3.4-13.3c0-0.2,0.1-0.4,0.1-0.6C287.9,237.8,287.5,237,286.8,236.8z"/>
			<path class="st33" d="M316.2,250.3c-1-2.3-2-4.7-3-7.1c-0.5-1.1-0.9-2.3-1.4-3.4c-0.4-0.9-1.3-1.3-2.1-1
				c-0.9,0.3-1.3,1.1-1.1,2.1c0.1,0.3,0.2,0.5,0.3,0.7c1,2.5,2,4.9,3,7.4c0.7,1.6,1.4,3.1,2.1,4.6c0,0,0.1,0,0.1,0
				c0.1,0.1,0.1,0.2,0.2,0.3c0.6,0.9,1.5,1.1,2.3,0.7c0.8-0.4,1.1-1.4,0.7-2.3C316.9,251.7,316.5,251,316.2,250.3z"/>
			<path class="st33" d="M244,199.9c0.8-0.2,1.4-0.8,1.4-1.6c0-0.8-0.5-1.5-1.3-1.7c-0.4-0.1-0.8-0.1-1.2-0.1
				c-3.8,0.2-7.5,0.4-11.3,0.6c-1.5,0.1-3.1,0.2-4.6,0.3c-0.6,0-1.2,0.2-1.6,0.8c-0.4,0.5-0.5,1.1-0.2,1.7c0.3,0.8,1,1,1.7,1
				c0.9,0,1.8-0.1,2.7-0.2c4.6-0.2,9.2-0.5,13.7-0.7C243.6,200,243.8,200,244,199.9z"/>
			<path class="st33" d="M247.9,220.5c-0.2,0.1-0.4,0.3-0.6,0.5c-2.1,1.7-4.1,3.4-6.1,5.1c-1.3,1.1-2.5,2.3-3.8,3.4c0,0,0,0,0.1,0.1
				c-0.1,0.1-0.2,0.2-0.3,0.3c-0.6,0.8-0.6,1.8,0,2.4c0.7,0.6,1.7,0.6,2.4,0c0.6-0.5,1.1-1.1,1.7-1.7c1.9-1.7,3.9-3.3,5.9-4.9
				c0.9-0.8,1.9-1.5,2.8-2.3c0.7-0.6,0.8-1.6,0.3-2.3C249.7,220.1,248.8,220,247.9,220.5z"/>
			<path class="st33" d="M265.5,133.4c-0.5-1.5-0.9-2.9-1.4-4.4c-0.2-0.6-0.5-1.1-1.1-1.4c-0.6-0.2-1.2-0.2-1.7,0.2
				c-0.7,0.5-0.8,1.2-0.6,1.9c0.3,0.9,0.5,1.7,0.8,2.6c1.3,4.4,2.7,8.8,4,13.1c0.1,0.2,0.1,0.4,0.2,0.6c0.4,0.7,1.1,1.1,1.8,1
				c0.8-0.2,1.4-0.8,1.4-1.7c0-0.4-0.1-0.8-0.2-1.2C267.7,140.6,266.6,137,265.5,133.4z"/>
			<path class="st33" d="M233.5,149.6c0.7,0.4,1.4,0.8,2,1.2c2.1,1.5,4.2,3,6.2,4.5c1,0.7,1.9,1.5,2.9,2.2c0.8,0.5,1.8,0.4,2.3-0.2
				c0.6-0.7,0.6-1.7-0.2-2.4c-0.2-0.2-0.4-0.3-0.6-0.5c-2.1-1.6-4.2-3.2-6.4-4.7c-1.4-1-2.8-1.9-4.2-2.9c0,0,0,0.1-0.1,0.1
				c-0.1-0.1-0.2-0.1-0.3-0.2c-0.9-0.4-1.9-0.2-2.3,0.6C232.4,148,232.6,149,233.5,149.6z"/>
		</g>
		<g>
			<path class="st32" d="M304.8,159.2c5.7,3.1,7.3,4.8,10.6-1.6C358.9,72.3,297.9,155.4,304.8,159.2z"/>
			<path class="st32" d="M318.9,165c7.5,11.4,6.5,12.6,17.7-5.9c1.8-2.9-0.2-4.6-2-3.9C320.8,161,316.9,161.9,318.9,165z"/>
			<path class="st32" d="M291,155.6c13.5,2.4,13.6,3.9,7.9-16.9c-0.9-3.3-3.5-3-4.2-1.2C289.3,151.5,287.3,155,291,155.6z"/>
			<path class="st32" d="M324.8,192.3c-1.2,6.3-2.4,8.4,4.7,9.6C423.8,217.9,326.3,184.6,324.8,192.3z"/>
			<path class="st32" d="M323.4,207.5c-8.7,10.6-10.1,10,10.9,15.1c3.3,0.8,4.3-1.6,3.1-3.1C327.9,208.1,325.8,204.6,323.4,207.5z"
				/>
			<path class="st32" d="M324,178.1c1.7,13.6,0.3,14.2,18.5,2.5c2.9-1.9,1.8-4.2-0.1-4.4C327.5,175.2,323.5,174.4,324,178.1z"/>
			<path class="st32" d="M299.2,221.3c-6.4,0.7-8.8,0.2-7.8,7.4C304.4,323.5,307,220.4,299.2,221.3z"/>
			<path class="st32" d="M284.3,224.6c-12.7-5.1-12.6-6.6-11.1,15c0.2,3.4,2.8,3.7,3.8,2.1C285,228.9,287.7,226,284.3,224.6z"/>
			<path class="st32" d="M312.5,216.3c-12.4,5.7-13.4,4.6,3.2,18.4c2.6,2.2,4.6,0.5,4.1-1.4C316.2,218.7,315.9,214.7,312.5,216.3z"
				/>
			<path class="st32" d="M263.8,205.5c-2.6-5.9-2.8-8.3-9.4-5.2C167.9,241.1,267,212.7,263.8,205.5z"/>
			<path class="st32" d="M237.8,190.4c14.5,3.9,18.1,5.6,18.4,1.9c1.1-13.6,2.5-13.9-17.6-6.2C235.4,187.4,236,189.9,237.8,190.4z"
				/>
			<path class="st32" d="M272.6,216.8c-9.2-10.2-8.4-11.4-16.6,8.6c-1.3,3.2,0.9,4.5,2.6,3.5C271.4,221,275.1,219.5,272.6,216.8z"/>
			<path class="st32" d="M265.1,166.7c5.1-4,7.4-4.7,2.8-10.4C207.4,82.2,258.9,171.5,265.1,166.7z"/>
			<path class="st32" d="M276.1,156.1c13.5-2.3,14.1-0.9,1.7-18.6c-2-2.8-4.3-1.7-4.4,0.3C273.2,152.8,272.5,156.7,276.1,156.1z"/>
			<path class="st32" d="M241.2,167.2c10.7,10.5,13,13.8,15.1,10.7c7.6-11.3,9.1-10.9-12.3-14C240.6,163.4,239.9,165.9,241.2,167.2z
				"/>
		</g>
	</g>
	<g>
		<path class="st32" d="M262.8,187.7c0.5-37.9,52-35.2,56.7-2.1c5.1,35.7-48.3,46.4-56.3,8.4C262.8,192.2,262.8,190.2,262.8,187.7z
			 M267.3,195.5c-0.1,0-0.1,0.1-0.2,0.1c7.3,21.7,38.2,25.5,47,1.9c9.7-26.1-30.9-48.9-44.1-19.5c-6.7,14.8,11.2,31,27.5,21.3
			c7.7-4.6,8.8-12.5,4.3-18.4c-8.1-10.8-25.1-3.8-21.6,5.8c3.1,8.3,14.6,5.5,14.2,0.9c-0.6-6-6.3-4.9-6-1.9c0.3,2.2-2.8,2.8-3.6,0
			c-2.1-7.1,12.1-11.2,13.9,1.3c1.4,10.3-18.4,14.3-22.7,0.6c-6.1-19.5,32.5-23.8,32.8,0.9C309,205.7,279.8,215.2,267.3,195.5z"/>
	</g>
</g>
<g>
	<g>
		<g>
			<path class="st32" d="M200.5,260.8c0.5,0.4,1,0.7,1.5,1.1c2.3,2.1,4.5,4.2,6.8,6.3c0.3,0.3,0.6,0.6,1,0.8
				c0.7,0.4,1.5,0.3,2.1-0.3c0.5-0.6,0.5-1.4,0-2.1c-0.2-0.2-0.3-0.4-0.5-0.5c-1.9-1.7-3.7-3.5-5.6-5.2c-0.8-0.7-1.6-1.5-2.4-2.2
				c-0.5-0.4-1.1-0.8-1.7-0.8c-0.8,0-1.4,0.4-1.7,1C199.6,259.7,199.9,260.4,200.5,260.8z"/>
			<path class="st32" d="M210.9,260.2c0.6,0.6,1.2,1.1,1.8,1.7c0.4,0.4,0.9,0.6,1.5,0.5c0.6-0.1,1.1-0.5,1.3-1.1
				c0.2-0.7,0-1.3-0.5-1.7c-1.8-1.8-3.6-3.6-5.5-5.3c-0.3-0.3-0.8-0.4-1.2-0.6c-0.8,0.1-1.3,0.4-1.5,1.1c-0.3,0.6-0.2,1.3,0.4,1.9
				C208.4,257.8,209.6,259,210.9,260.2z"/>
			<path class="st32" d="M214.9,254.2c0.5,0.5,1,1.1,1.5,1.7c0.3,0.3,0.7,0.6,1.1,0.8c1,0.4,2.2-0.3,2.2-1.7
				c-0.1-0.2-0.2-0.6-0.5-0.9c-1.1-1.2-2.2-2.4-3.3-3.6c-0.3-0.3-0.7-0.7-1-1c-0.2-0.2-0.4-0.3-0.6-0.4c-0.9-0.5-1.7-0.3-2.3,0.4
				c-0.5,0.7-0.4,1.5,0.3,2.2C213.2,252.5,214.1,253.3,214.9,254.2z"/>
			<path class="st32" d="M223.7,249.7c0.4-0.1,0.8-0.1,1.2-0.2c2.7-0.8,4.1-3.2,4.1-5.9c0-0.9-0.2-1.7-0.9-2.3
				c-1.5-1.4-3.3-2-5.3-1.7c-0.9,0.1-1.7,0.7-2.4,1.2c-0.9,0.5-1.4,1.3-1.7,2.3C217.7,246.3,220.2,249.7,223.7,249.7z"/>
			<path class="st32" d="M218.3,274.6c-0.4-1-0.8-2-1.3-3.1c-0.3-0.6-0.6-1.2-1.2-1.4c-0.7-0.4-1.5-0.3-2,0.2
				c-0.5,0.5-0.6,1.3-0.2,2c0.3,0.5,0.6,1.1,0.9,1.7c1.2,2.9,2.3,5.7,3.5,8.6c0.2,0.4,0.3,0.8,0.5,1.1c0.5,0.7,1.3,0.9,2,0.6
				c0.7-0.3,1.1-1.1,0.9-1.9c-0.1-0.2-0.2-0.5-0.3-0.7C220.2,279.3,219.2,277,218.3,274.6z"/>
			<path class="st32" d="M225.3,279.5c0.6,0.2,1.2,0,1.6-0.4c0.5-0.5,0.6-1.1,0.3-1.8c-0.9-2.4-1.8-4.8-2.8-7.1
				c-0.2-0.4-0.6-0.7-0.8-1.1c-0.7-0.2-1.3-0.1-1.9,0.3c-0.6,0.5-0.7,1.1-0.4,1.9c0.6,1.6,1.2,3.2,1.9,4.8c0.3,0.8,0.6,1.5,0.9,2.3
				C224.4,279,224.7,279.4,225.3,279.5z"/>
			<path class="st32" d="M228.3,269c0.4,1.1,0.8,2.3,1.2,3.5c0.2,0.7,0.4,1.5,0.7,2.2c0.2,0.4,0.4,0.9,0.7,1.2
				c0.8,0.8,2.1,0.6,2.7-0.6c0-0.2,0.1-0.7-0.1-1.1c-0.5-1.6-1-3.1-1.5-4.7c-0.1-0.4-0.3-0.9-0.5-1.3c-0.1-0.2-0.2-0.5-0.4-0.7
				c-0.6-0.8-1.4-1-2.2-0.6C228.2,267.3,227.9,268.1,228.3,269z"/>
			<path class="st32" d="M239.3,272.1c0.4,0.1,0.8,0.3,1.2,0.3c2.8,0.4,5.1-1.2,6.2-3.6c0.4-0.8,0.5-1.7,0.2-2.5
				c-0.8-1.9-2.1-3.2-4.1-3.8c-0.9-0.3-1.8-0.1-2.7,0c-1,0.1-1.8,0.6-2.5,1.3C235.3,266.5,236.2,270.6,239.3,272.1z"/>
			<path class="st32" d="M220.2,300.7c0.1,0.8,0.8,1.4,1.6,1.4c0.8,0,1.4-0.5,1.6-1.3c0.1-0.2,0.1-0.5,0.1-0.8
				c0.1-2.5,0.3-5.1,0.4-7.6c0.1-1.1,0.1-2.2,0.1-3.3c0-0.7-0.1-1.3-0.5-1.8c-0.5-0.6-1.2-0.9-1.9-0.6c-0.7,0.3-1.1,0.9-1,1.7
				c0,0.6,0.1,1.3,0.1,1.9c-0.1,3.1-0.3,6.2-0.5,9.2C220.2,299.9,220.2,300.3,220.2,300.7z"/>
			<path class="st32" d="M229.8,300.1c0.7-0.3,1-0.8,1-1.5c0.2-2.5,0.4-5.1,0.5-7.6c0-0.4-0.2-0.9-0.3-1.3c-0.6-0.5-1.1-0.7-1.8-0.5
				c-0.7,0.2-1.1,0.7-1.2,1.5c-0.1,1.7-0.2,3.4-0.4,5.2c-0.1,0.8-0.1,1.6-0.1,2.4c0,0.5,0.1,1.1,0.6,1.4
				C228.7,300.2,229.2,300.3,229.8,300.1z"/>
			<path class="st32" d="M237.9,298.4c0.2-1.6,0.4-3.2,0.6-4.9c0.1-0.5,0.1-0.9,0.1-1.4c0-0.2,0-0.5,0-0.8c-0.2-1-0.9-1.6-1.7-1.5
				c-0.8,0.1-1.4,0.7-1.5,1.7c-0.1,1.2-0.2,2.4-0.3,3.7c-0.1,0.8-0.2,1.5-0.3,2.2c0,0.5,0,1,0.1,1.4c0.3,1.1,1.7,1.4,2.7,0.6
				C237.6,299.2,237.8,298.8,237.9,298.4z"/>
			<path class="st32" d="M251.2,291.8c-0.7-0.6-1.6-0.8-2.5-1.1c-1-0.3-1.9-0.3-2.8,0.1c-3.1,1.4-4,5.5-1.9,8.2
				c0.3,0.3,0.6,0.6,0.9,0.8c2.3,1.6,5.1,1.1,7.2-0.6c0.7-0.5,1.2-1.3,1.2-2.2C253.4,294.9,252.7,293.2,251.2,291.8z"/>
			<path class="st32" d="M215.4,318.7c0.7,0.3,1.5,0.1,2-0.5c0.2-0.2,0.3-0.4,0.4-0.6c1.2-2.2,2.4-4.5,3.6-6.8c0.5-1,1-1.9,1.5-2.9
				c0.3-0.6,0.5-1.2,0.3-1.9c-0.2-0.8-0.7-1.3-1.4-1.4c-0.8-0.1-1.4,0.4-1.7,1.1c-0.2,0.6-0.4,1.2-0.7,1.7c-1.4,2.7-2.9,5.4-4.3,8.2
				c-0.2,0.4-0.4,0.7-0.5,1.1C214.4,317.6,214.7,318.4,215.4,318.7z"/>
			<path class="st32" d="M223.6,320.3c0.7,0.1,1.2-0.3,1.5-0.9c1.3-2.2,2.5-4.4,3.7-6.7c0.2-0.4,0.2-0.9,0.3-1.3
				c-0.3-0.7-0.8-1.1-1.4-1.2c-0.7-0.1-1.3,0.2-1.7,0.9c-0.8,1.5-1.7,3-2.5,4.5c-0.4,0.7-0.8,1.4-1.1,2.2c-0.2,0.5-0.3,1-0.1,1.5
				C222.4,319.9,222.9,320.3,223.6,320.3z"/>
			<path class="st32" d="M234.2,314c-0.8-0.3-1.6,0.1-2.1,0.9c-0.6,1.1-1.2,2.1-1.9,3.2c-0.4,0.6-0.8,1.3-1.2,1.9
				c-0.2,0.4-0.4,0.9-0.5,1.3c-0.2,1.1,0.9,2,2.2,1.7c0.2-0.1,0.5-0.4,0.8-0.7c0.9-1.4,1.8-2.7,2.6-4.1c0.2-0.4,0.5-0.8,0.7-1.2
				c0.1-0.2,0.2-0.5,0.3-0.7C235.4,315.1,235.1,314.3,234.2,314z"/>
			<path class="st32" d="M244.7,319.8c-0.7-0.7-1.6-1.1-2.6-1.1c-3.4-0.1-6,3.3-5.2,6.6c0.2,0.4,0.3,0.8,0.5,1.1
				c1.4,2.4,4.1,3.1,6.7,2.5c0.8-0.2,1.6-0.7,2-1.4c1-1.8,1.1-3.7,0.3-5.6C246,321,245.3,320.4,244.7,319.8z"/>
			<path class="st32" d="M214.1,324.5c0.5-0.4,1-0.9,1.1-1.5c0.2-0.8-0.1-1.5-0.7-1.8c-0.7-0.4-1.4-0.3-2,0.3
				c-0.5,0.4-0.9,0.9-1.4,1.3c-2.5,1.9-4.9,3.7-7.4,5.6c-0.3,0.2-0.7,0.5-0.9,0.8c-0.5,0.6-0.6,1.5-0.1,2.1c0.5,0.6,1.3,0.8,2,0.4
				c0.2-0.1,0.4-0.3,0.6-0.4c2-1.5,4.1-3.1,6.1-4.6C212.3,325.8,213.2,325.2,214.1,324.5z"/>
			<path class="st32" d="M218.1,330.3c0-0.8-0.2-1.3-0.8-1.7c-0.6-0.4-1.3-0.4-1.9,0.1c-1.4,1-2.8,2-4.2,3c-0.7,0.5-1.3,1-2,1.5
				c-0.4,0.3-0.7,0.8-0.8,1.4c0,0.6,0.3,1.2,0.8,1.5c0.6,0.3,1.2,0.2,1.8-0.1c2.1-1.5,4.1-3,6.2-4.5
				C217.6,331.1,217.8,330.7,218.1,330.3z"/>
			<path class="st32" d="M221.1,337.6c0.2-0.2,0.4-0.3,0.5-0.5c0.6-0.8,0.6-1.7,0-2.3c-0.6-0.6-1.5-0.6-2.2-0.1c-1,0.7-2,1.4-3,2.1
				c-0.6,0.4-1.3,0.8-1.9,1.2c-0.4,0.3-0.8,0.6-1,1c-0.6,1,0,2.2,1.3,2.4c0.2-0.1,0.7-0.1,1-0.3c1.4-0.8,2.8-1.7,4.1-2.6
				C220.3,338.2,220.7,337.9,221.1,337.6z"/>
			<path class="st32" d="M226.7,342.4c-3-1.5-6.8,0.4-7.5,3.8c0,0.4,0,0.8,0,1.2c0.3,2.8,2.4,4.6,5.1,5.1c0.8,0.2,1.7,0.1,2.5-0.4
				c1.7-1.2,2.6-2.9,2.6-5c0-0.9-0.4-1.8-0.7-2.6C228.3,343.5,227.6,342.8,226.7,342.4z"/>
			<path class="st32" d="M199,335.8c0.6-0.2,1.3-0.4,1.6-0.9c0.5-0.7,0.5-1.4,0.1-2c-0.4-0.6-1.2-0.8-1.9-0.6
				c-0.6,0.2-1.2,0.4-1.8,0.6c-3,0.6-6,1.3-9.1,1.9c-0.4,0.1-0.8,0.2-1.2,0.3c-0.8,0.3-1.1,1.1-0.9,1.9c0.2,0.7,0.9,1.3,1.7,1.2
				c0.2,0,0.5-0.1,0.7-0.1c2.5-0.5,5-1,7.5-1.6C196.8,336.2,197.9,336,199,335.8z"/>
			<path class="st32" d="M200.2,342.7c0.4-0.7,0.4-1.3,0-1.9c-0.4-0.6-1-0.9-1.8-0.8c-1.7,0.3-3.4,0.6-5.1,1
				c-0.8,0.2-1.6,0.3-2.4,0.5c-0.5,0.1-1,0.4-1.3,0.9c-0.3,0.6-0.3,1.2,0.1,1.7c0.4,0.6,1,0.7,1.7,0.6c2.5-0.5,5-0.9,7.5-1.4
				C199.4,343.3,199.8,343,200.2,342.7z"/>
			<path class="st32" d="M199.8,350.6c0.2-0.1,0.5-0.1,0.7-0.2c0.9-0.4,1.3-1.2,1-2.1c-0.3-0.8-1.1-1.2-2-1
				c-1.2,0.2-2.4,0.4-3.6,0.6c-0.7,0.1-1.5,0.2-2.2,0.3c-0.5,0.1-0.9,0.2-1.3,0.5c-1,0.6-1,2,0.2,2.8c0.2,0,0.6,0.2,1.1,0.1
				c1.6-0.2,3.2-0.4,4.9-0.6C198.8,350.8,199.3,350.7,199.8,350.6z"/>
			<path class="st32" d="M194.5,357.6c-0.2,0.4-0.4,0.7-0.5,1.1c-0.9,2.7,0.2,5.2,2.4,6.8c0.7,0.5,1.5,0.8,2.4,0.6
				c2-0.4,3.5-1.5,4.5-3.4c0.4-0.8,0.4-1.8,0.4-2.7c0.1-1-0.2-1.9-0.9-2.7C200.8,354.7,196.5,354.8,194.5,357.6z"/>
			<path class="st32" d="M181.8,336.3c-0.6-0.1-1.3-0.1-1.9-0.3c-3-0.7-6-1.4-9-2.1c-0.4-0.1-0.8-0.2-1.2-0.2
				c-0.8,0-1.5,0.5-1.6,1.3c-0.2,0.8,0.3,1.5,1,1.8c0.2,0.1,0.5,0.1,0.7,0.2c2.5,0.6,5,1.2,7.4,1.7c1.1,0.2,2.1,0.5,3.2,0.7
				c0.7,0.1,1.3,0.2,1.9-0.2c0.7-0.4,1.1-1,0.9-1.7C183.2,336.9,182.6,336.4,181.8,336.3z"/>
			<path class="st32" d="M178.2,343.3c-1.7-0.4-3.4-0.9-5-1.3c-0.8-0.2-1.6-0.4-2.4-0.6c-0.5-0.1-1.1-0.1-1.5,0.3
				c-0.5,0.4-0.7,0.9-0.6,1.6c0.1,0.7,0.6,1.1,1.3,1.3c2.5,0.6,4.9,1.3,7.4,1.9c0.4,0.1,0.9,0,1.4-0.1c0.6-0.5,0.9-1,0.8-1.7
				C179.4,344,178.9,343.5,178.2,343.3z"/>
			<path class="st32" d="M176.1,350.2c-1.2-0.3-2.4-0.6-3.5-1c-0.7-0.2-1.4-0.5-2.2-0.7c-0.4-0.1-0.9-0.2-1.4-0.1
				c-1.1,0.1-1.7,1.4-1,2.6c0.2,0.1,0.5,0.4,0.9,0.6c1.5,0.5,3.1,1,4.7,1.5c0.4,0.1,0.9,0.2,1.4,0.3c0.2,0.1,0.5,0.1,0.7,0.1
				c1,0,1.7-0.6,1.8-1.5C177.5,351.2,177,350.5,176.1,350.2z"/>
			<path class="st32" d="M167.2,357.5c-0.3,0.3-0.7,0.5-0.9,0.8c-2,2-2,4.8-0.7,7.1c0.4,0.7,1.1,1.4,1.9,1.6c2,0.5,3.8,0.1,5.5-1.2
				c0.7-0.6,1.1-1.4,1.5-2.2c0.5-0.9,0.6-1.8,0.4-2.8C174.1,357.5,170.2,355.8,167.2,357.5z"/>
			<path class="st32" d="M165.5,334.7c0.2-0.7-0.1-1.4-0.8-1.8c-0.5-0.3-1.1-0.6-1.6-1c-2.4-1.9-4.8-3.8-7.3-5.7
				c-0.3-0.3-0.7-0.5-1-0.7c-0.7-0.4-1.6-0.2-2,0.5c-0.5,0.6-0.4,1.5,0.1,2.1c0.2,0.2,0.4,0.3,0.6,0.5c2,1.6,4,3.2,6,4.7
				c0.9,0.7,1.7,1.4,2.6,2c0.5,0.4,1.1,0.7,1.8,0.6C164.8,335.8,165.3,335.4,165.5,334.7z"/>
			<path class="st32" d="M154.4,334.3c-0.6-0.5-1.3-1-1.9-1.5c-0.4-0.3-0.9-0.5-1.5-0.4c-0.6,0.2-1.1,0.5-1.2,1.2
				c-0.2,0.7,0.1,1.3,0.6,1.7c2,1.6,3.9,3.2,5.9,4.8c0.3,0.3,0.8,0.4,1.3,0.5c0.7-0.2,1.2-0.5,1.5-1.2c0.3-0.7,0-1.3-0.6-1.9
				C157.1,336.5,155.8,335.4,154.4,334.3z"/>
			<path class="st32" d="M153.6,343c-0.9-0.8-1.9-1.6-2.8-2.4c-0.6-0.5-1.1-1.1-1.7-1.5c-0.4-0.3-0.8-0.6-1.2-0.7
				c-1.1-0.4-2.1,0.5-2,1.9c0.1,0.2,0.3,0.6,0.6,0.9c1.2,1.1,2.4,2.2,3.6,3.3c0.3,0.3,0.7,0.6,1.1,0.9c0.2,0.2,0.4,0.3,0.6,0.4
				c0.9,0.4,1.8,0.2,2.2-0.6C154.6,344.5,154.4,343.6,153.6,343z"/>
			<path class="st32" d="M142.6,345.8c-0.4,0.1-0.8,0.2-1.2,0.3c-2.6,1-3.8,3.5-3.6,6.2c0.1,0.9,0.4,1.7,1.1,2.3
				c1.6,1.3,3.4,1.7,5.5,1.3c0.9-0.2,1.6-0.8,2.3-1.4c0.8-0.6,1.3-1.4,1.5-2.4C148.8,348.7,146,345.6,142.6,345.8z"/>
			<path class="st32" d="M142.4,313.7c1.1,2.3,2.3,4.6,3.4,6.8c0.5,1,1,2,1.5,2.9c0.3,0.6,0.7,1.1,1.3,1.3c0.8,0.3,1.5,0.1,1.9-0.4
				c0.5-0.6,0.5-1.3,0-2c-0.3-0.5-0.7-1-1-1.6c-1.4-2.7-2.8-5.5-4.2-8.3c-0.2-0.4-0.4-0.7-0.6-1c-0.5-0.6-1.3-0.8-2-0.4
				c-0.7,0.4-1,1.2-0.8,1.9C142.2,313.3,142.3,313.5,142.4,313.7z"/>
			<path class="st32" d="M140.9,326.5c0.7,0.2,1.3,0,1.8-0.5c0.5-0.5,0.6-1.2,0.3-1.9c-0.7-1.6-1.5-3.1-2.3-4.7
				c-0.4-0.7-0.7-1.5-1.1-2.2c-0.3-0.5-0.6-0.9-1.2-1c-0.6-0.1-1.2,0.1-1.6,0.6c-0.5,0.5-0.5,1.2-0.2,1.8c1.1,2.3,2.2,4.6,3.3,6.9
				C140.2,325.9,140.6,326.1,140.9,326.5z"/>
			<path class="st32" d="M134.9,323.6c-0.3-0.7-0.5-1.4-0.9-2.1c-0.2-0.4-0.5-0.8-0.8-1.2c-0.8-0.8-2.2-0.4-2.6,0.9
				c0,0.2,0,0.7,0.1,1.1c0.6,1.5,1.2,3,1.9,4.5c0.2,0.4,0.4,0.9,0.6,1.3c0.1,0.2,0.3,0.4,0.4,0.6c0.6,0.8,1.5,0.9,2.3,0.4
				c0.7-0.5,0.9-1.3,0.5-2.2C135.9,325.9,135.4,324.8,134.9,323.6z"/>
			<path class="st32" d="M125.1,324.8c-0.4-0.1-0.8-0.2-1.2-0.2c-2.8-0.2-5,1.6-5.9,4.1c-0.3,0.8-0.4,1.7,0,2.5
				c0.9,1.8,2.4,3,4.4,3.5c0.9,0.2,1.8-0.1,2.7-0.3c1-0.2,1.8-0.7,2.4-1.5C129.6,330.1,128.3,326.1,125.1,324.8z"/>
			<path class="st32" d="M138.8,303.4c0,1.1,0.1,2.2,0.1,3.3c0,0.7,0.2,1.3,0.6,1.8c0.6,0.6,1.3,0.8,1.9,0.5c0.7-0.3,1-1,0.9-1.8
				c-0.1-0.6-0.2-1.2-0.2-1.9c-0.1-3.1-0.2-6.2-0.3-9.3c0-0.4,0-0.8-0.1-1.2c-0.2-0.8-0.9-1.3-1.7-1.3c-0.8,0-1.4,0.6-1.5,1.4
				c0,0.2,0,0.5,0,0.8C138.7,298.3,138.7,300.8,138.8,303.4z"/>
			<path class="st32" d="M134,296.3c-0.5-0.4-1.1-0.5-1.7-0.2c-0.6,0.3-0.9,0.9-0.9,1.5c0,2.5,0,5.1,0.1,7.6c0,0.4,0.3,0.9,0.4,1.3
				c0.6,0.5,1.2,0.6,1.8,0.3c0.7-0.2,1.1-0.8,1.1-1.6c0-1.7,0-3.5-0.1-5.2c0-0.8,0-1.6-0.1-2.5C134.6,297.2,134.4,296.6,134,296.3z"
				/>
			<path class="st32" d="M124.3,305.6c0.2,1,1,1.5,1.9,1.3c0.8-0.1,1.4-0.8,1.4-1.8c0-1.2,0-2.4,0-3.7c0-0.8,0.1-1.5,0.1-2.3
				c0-0.5-0.1-1-0.2-1.4c-0.4-1.1-1.8-1.3-2.7-0.3c-0.1,0.2-0.3,0.6-0.3,1c-0.1,1.6-0.2,3.3-0.2,4.9c0,0.5,0,0.9,0,1.4
				C124.2,305.1,124.2,305.3,124.3,305.6z"/>
			<path class="st32" d="M118.3,298.4c-0.3-0.2-0.6-0.5-1-0.7c-2.5-1.4-5.2-0.7-7.1,1.2c-0.6,0.6-1.1,1.4-1.1,2.3
				c0,2.1,0.9,3.8,2.5,5c0.8,0.6,1.7,0.7,2.6,0.9c1,0.2,1.9,0.1,2.8-0.4C120,305.1,120.6,300.9,118.3,298.4z"/>
			<path class="st32" d="M139.8,290.9c0.8,0,1.3-0.5,1.6-1.3c0.2-0.6,0.3-1.2,0.6-1.8c1.2-2.8,2.4-5.7,3.7-8.5
				c0.2-0.4,0.3-0.8,0.4-1.2c0.2-0.8-0.2-1.5-1-1.8c-0.7-0.3-1.5,0-2,0.7c-0.1,0.2-0.2,0.4-0.3,0.7c-1,2.3-2,4.7-3,7
				c-0.4,1-0.9,2-1.3,3c-0.2,0.6-0.4,1.3-0.2,1.9C138.5,290.5,139.1,290.9,139.8,290.9z"/>
			<path class="st32" d="M135.2,284.9c0.7-1.6,1.4-3.1,2.1-4.7c0.3-0.7,0.7-1.5,1-2.3c0.2-0.5,0.3-1,0-1.5c-0.3-0.6-0.8-0.9-1.5-0.9
				c-0.7,0-1.2,0.4-1.5,1c-1.1,2.3-2.1,4.6-3.1,7c-0.2,0.4-0.1,0.9-0.2,1.4c0.4,0.7,0.8,1,1.5,1.1
				C134.3,285.9,134.9,285.6,135.2,284.9z"/>
			<path class="st32" d="M131.8,274.9c0.1-1.1-1.1-1.9-2.3-1.5c-0.1,0.2-0.5,0.4-0.7,0.8c-0.8,1.4-1.5,2.9-2.3,4.3
				c-0.2,0.4-0.4,0.9-0.6,1.3c-0.1,0.2-0.2,0.5-0.2,0.7c-0.2,1,0.3,1.8,1.1,2c0.8,0.2,1.6-0.2,2-1c0.5-1.1,1.1-2.2,1.6-3.3
				c0.3-0.7,0.7-1.3,1.1-2C131.6,275.9,131.7,275.4,131.8,274.9z"/>
			<path class="st32" d="M115.9,277.7c0.8,0.6,1.7,0.9,2.7,0.9c3.4-0.2,5.7-3.8,4.6-7c-0.2-0.4-0.4-0.7-0.6-1.1
				c-1.6-2.3-4.4-2.8-6.9-1.9c-0.8,0.3-1.6,0.8-1.9,1.6c-0.8,1.9-0.8,3.8,0.2,5.6C114.4,276.7,115.2,277.2,115.9,277.7z"/>
			<path class="st32" d="M156.9,265.1c0.5-0.7,0.4-1.5-0.1-2.1c-0.5-0.6-1.4-0.7-2.1-0.2c-0.2,0.1-0.4,0.3-0.6,0.5
				c-1.9,1.7-3.8,3.4-5.7,5.1c-0.8,0.7-1.7,1.5-2.4,2.2c-0.5,0.5-0.9,1-0.9,1.6c-0.1,0.8,0.2,1.5,0.9,1.8c0.7,0.3,1.4,0.1,2-0.5
				c0.4-0.5,0.8-1,1.3-1.4c2.3-2.1,4.6-4.1,6.9-6.2C156.4,265.7,156.7,265.4,156.9,265.1z"/>
			<path class="st32" d="M141.5,265.1c0,0.8,0.3,1.3,0.9,1.6c0.6,0.4,1.3,0.3,1.9-0.2c1.3-1.1,2.6-2.2,3.9-3.4
				c0.6-0.5,1.2-1.1,1.8-1.6c0.4-0.4,0.7-0.8,0.6-1.4c0-0.6-0.4-1.1-1-1.4c-0.6-0.3-1.2-0.1-1.8,0.3c-1.9,1.6-3.9,3.3-5.8,5
				C141.9,264.2,141.7,264.7,141.5,265.1z"/>
			<path class="st32" d="M137.9,258c-0.2,0.2-0.4,0.4-0.5,0.6c-0.6,0.8-0.5,1.7,0.2,2.3c0.6,0.6,1.5,0.5,2.2-0.1
				c0.9-0.8,1.9-1.6,2.8-2.3c0.6-0.5,1.2-0.9,1.8-1.4c0.4-0.3,0.7-0.7,0.9-1.1c0.5-1-0.1-2.2-1.5-2.3c-0.2,0.1-0.6,0.2-1,0.4
				c-1.3,1-2.6,2-3.9,3C138.6,257.4,138.2,257.7,137.9,258z"/>
			<path class="st32" d="M129.8,251.8c0.5,0.9,1.2,1.6,2.1,1.9c3.1,1.2,6.7-1,7.1-4.4c0-0.4,0-0.8-0.1-1.2c-0.5-2.8-2.8-4.4-5.5-4.7
				c-0.8-0.1-1.7,0.1-2.4,0.6c-1.6,1.4-2.3,3.1-2.2,5.2C128.9,250.2,129.4,251,129.8,251.8z"/>
			<path class="st32" d="M160.5,256.9c-0.6,0.2-1.2,0.5-1.5,1.1c-0.4,0.7-0.4,1.4,0,2c0.5,0.6,1.2,0.7,2,0.4
				c0.6-0.3,1.1-0.5,1.7-0.7c3-0.9,5.9-1.8,8.9-2.6c0.4-0.1,0.8-0.2,1.1-0.4c0.7-0.4,1-1.2,0.8-1.9c-0.2-0.7-1-1.2-1.8-1.1
				c-0.2,0-0.5,0.1-0.7,0.2c-2.4,0.7-4.9,1.5-7.3,2.2C162.6,256.3,161.6,256.6,160.5,256.9z"/>
			<path class="st32" d="M158.7,250.1c-0.3,0.7-0.3,1.3,0.1,1.9c0.4,0.6,1.1,0.8,1.8,0.6c1.7-0.5,3.3-0.9,5-1.4
				c0.8-0.2,1.6-0.4,2.3-0.7c0.5-0.2,1-0.5,1.2-1c0.2-0.6,0.2-1.2-0.3-1.7c-0.5-0.5-1.1-0.7-1.7-0.5c-2.5,0.7-4.9,1.3-7.4,2.1
				C159.5,249.5,159.1,249.8,158.7,250.1z"/>
			<path class="st32" d="M158.5,242.2c-0.2,0.1-0.5,0.2-0.7,0.3c-0.9,0.5-1.2,1.3-0.8,2.1c0.3,0.8,1.2,1.1,2.1,0.9
				c1.2-0.3,2.4-0.6,3.6-0.9c0.7-0.2,1.5-0.3,2.2-0.5c0.4-0.1,0.9-0.3,1.3-0.6c0.9-0.7,0.8-2-0.4-2.7c-0.2,0-0.7-0.1-1.1,0
				c-1.6,0.3-3.2,0.7-4.8,1C159.4,241.9,159,242,158.5,242.2z"/>
			<path class="st32" d="M154.9,235.8c2.3,2.4,6.5,1.9,8.3-1c0.1-0.4,0.3-0.7,0.4-1.1c0.7-2.7-0.7-5.2-3-6.5
				c-0.7-0.4-1.6-0.7-2.5-0.4c-2,0.6-3.4,1.8-4.2,3.7c-0.4,0.9-0.2,1.8-0.2,2.7C153.8,234.1,154.2,235,154.9,235.8z"/>
			<path class="st32" d="M181.7,255.7c0.6,0,1.3,0,1.9,0.1c3.1,0.4,6.1,0.9,9.2,1.4c0.4,0.1,0.8,0.1,1.2,0.1c0.8,0,1.4-0.6,1.5-1.4
				c0.1-0.8-0.4-1.5-1.2-1.7c-0.2-0.1-0.5-0.1-0.7-0.1c-2.5-0.4-5-0.8-7.6-1.1c-1.1-0.2-2.2-0.3-3.3-0.5c-0.7-0.1-1.3-0.1-1.9,0.3
				c-0.7,0.5-1,1.1-0.8,1.8C180.3,255.2,180.9,255.7,181.7,255.7z"/>
			<path class="st32" d="M184.8,248.5c1.7,0.3,3.4,0.6,5.1,0.9c0.8,0.1,1.6,0.3,2.4,0.4c0.5,0.1,1.1,0,1.5-0.4
				c0.5-0.5,0.6-1,0.5-1.6c-0.2-0.7-0.7-1-1.4-1.2c-2.5-0.4-5-0.9-7.5-1.2c-0.4-0.1-0.9,0.1-1.4,0.2c-0.6,0.5-0.8,1.1-0.7,1.8
				C183.5,247.9,184,248.3,184.8,248.5z"/>
			<path class="st32" d="M186.3,241.4c1.2,0.2,2.4,0.4,3.6,0.7c0.7,0.2,1.5,0.4,2.2,0.5c0.5,0.1,0.9,0.1,1.4,0
				c1.1-0.2,1.6-1.5,0.8-2.6c-0.2-0.1-0.5-0.4-1-0.5c-1.6-0.4-3.2-0.8-4.8-1.1c-0.5-0.1-0.9-0.2-1.4-0.2c-0.2,0-0.5,0-0.8,0
				c-1,0.1-1.6,0.7-1.7,1.6C184.7,240.6,185.3,241.2,186.3,241.4z"/>
			<path class="st32" d="M194.5,233.4c0.3-0.3,0.6-0.5,0.9-0.9c1.8-2.2,1.6-5,0.1-7.2c-0.5-0.7-1.2-1.3-2-1.4
				c-2-0.3-3.8,0.2-5.4,1.6c-0.7,0.6-1,1.5-1.3,2.4c-0.4,0.9-0.4,1.9-0.1,2.8C187.6,234,191.7,235.3,194.5,233.4z"/>
		</g>
	</g>
	<g>
		<path class="st33" d="M187,263.3c43,6.2,32.2,64.4-6.2,64.9c-41.4,0.5-45.5-62-1.1-65.4C181.9,262.6,184.2,262.8,187,263.3z
			 M177.4,267.2c0-0.1-0.1-0.1-0.1-0.2c-25.8,5-34.8,39.6-9.2,53.2c28.2,15,60.3-27.7,28.8-47.3c-15.8-9.8-37,8.1-28.4,28.1
			c4,9.5,12.9,11.9,20.3,7.7c13.5-7.6,8.1-28-3.3-25.4c-9.9,2.2-8.5,15.8-3.2,16c6.9,0.2,6.5-6.4,3.1-6.5c-2.6-0.1-2.8-3.6,0.6-4.1
			c8.4-1.3,10.9,15.5-3.5,15.6c-11.9,0.1-13.5-23.1,2.8-26c23.2-4,22.2,40.6-6,37.2C159.5,313.1,153.1,278.4,177.4,267.2z"/>
	</g>
</g>
</svg>
