<?xml version="1.0" encoding="utf-8"?>
<!-- Generator: Adobe Illustrator 21.0.1, SVG Export Plug-In . SVG Version: 6.00 Build 0)  -->
<svg version="1.1" id="Calque_1" xmlns="http://www.w3.org/2000/svg" xmlns:xlink="http://www.w3.org/1999/xlink" x="0px" y="0px"
	 viewBox="0 0 432 432" style="enable-background:new 0 0 432 432;" xml:space="preserve">
<style type="text/css">
	.st0{fill:#838BC5;}
	.st1{fill:#BA9BC9;}
	.st2{fill:#C77C31;}
	.st3{fill:#8B5F3D;}
	.st4{fill:#FFCD05;}
	.st5{fill:#3DB54A;}
	.st6{fill:#010101;}
	.st7{fill:#C77C2F;}
	.st8{fill:#1072BA;}
	.st9{fill:#67C9D0;}
	.st10{fill:#29B574;}
	.st11{fill:#F37476;}
</style>
<g>
	<g>
		<path class="st8" d="M234.6,112.4c-2.5-0.5-5.3-0.6-7.8-0.5c-13.5,1.2-24.2,7.5-32.5,18.3c-1.6,2.2-3,4.5-4.7,7
			c1.1-3.6,2.8-6.7,4.8-9.3c3.4-4.5,7.1-9,10.6-13.5c5-6.4,7.3-13.7,7.3-21.6c0-8.4-3.6-15.1-10.3-19.9c-4-3-8.5-5.3-13.5-6.7
			c-11-3.3-20.8-1.1-29.5,6.2c-4.7,3.9-7.5,8.7-8.5,14.8c-0.5,3.3,0.2,6.2,1.6,9.2c3.1,6.2,12.9,9.3,18.8,7.3
			c2.3-0.8,4.5-2.2,5.7-4.3c0.9-1.6,1.4-3.6,1.7-5.3c0.5-2.6-0.6-3.9-3.4-4.3c-1.2-0.2-2.6-0.2-3.9-0.5c-1.1-0.2-2.3-0.5-2.8-1.7
			c-0.5-1.4,0.2-2.3,1.1-3.3c2.2-2.2,4.8-3.3,7.9-3.4c3.3-0.2,5.7,1.2,6.8,4.5c0.8,2,1.4,4.2,1.4,6.4c0,5-1.4,9.6-4.7,13.7
			c-0.6,0.8-1.2,1.6-1.9,2.3c-5.6,6.7-11.2,13.5-15.1,21.3c-0.2,0.2-0.3,0.3-0.6,0.5c-1.2-2.3-2.3-4.5-3.6-6.8
			c-2.2-3.9-5.4-6.5-9.5-8.1c-8.2-3.3-19.7-0.2-25.3,6.8c-3.6,4.5-5.3,9.8-4.2,15.5c1.1,5.9,4.7,9.5,10.4,11
			c1.4,0.3,2.8,0.5,4.7,0.9c-1.2,0.8-2,1.2-3,1.7c-4,2.3-7.6,5.3-10.3,9.2c-1.1,1.7-0.9,2.8,0.5,3.9c1.7,1.4,2.8,1.4,4.2-0.2
			c1.9-2.2,4.2-3.4,6.7-4.3c1.7-0.6,3.6-0.9,5.4-1.6c2.6-0.8,5.3-1.4,7.8-2.3c3.3-1.4,5.6-3.9,7-7.3c0.6-1.9,1.4-3.7,1.6-5.6
			c1.1-7.3-1.4-13.2-7.1-17.7c-4-3.1-9.5-2.8-13,0.5c-2.6,2.3-3.4,5.3-1.7,8.4c1.2,2.2,3.1,4.2,4.7,6.2c0.5,0.6,0.9,1.1,1.6,1.6
			c-0.6,1.2-1.4,2.2-2.8,2.3c-4.2,0.8-10.4-1.4-11.5-7.1c-1.1-5.9,1.7-12.6,7.1-15.7c4-2.3,8.2-3.4,12.9-2.8
			c4.3,0.6,7.8,2.6,9.9,6.4c1.6,2.8,3,5.6,4,8.5c1.2,3.1,1.7,6.4,0.9,9.6c-0.8,3.6-2,7.1-3.1,10.7c-0.8,2.3-1.6,15.4-2.2,17.8
			c-0.6,2.5,0.2,4.8,1.1,7.1c0.6,1.4,1.7,1.9,3,1.4c1.2-0.5,1.7-1.6,1.4-3c-0.2-0.6-0.3-1.2-0.6-1.9c-0.8-2.3-0.2-4.7,0.9-6.8
			c0.2,0.2,0.5,0.3,0.5,0.5c1.1,3.4,2,6.7,3.1,10.1c0.5,1.6,1.4,2,3,1.7c0.8-0.2,1.6-0.3,2.3-0.5c1.7-0.2,2.6-1.2,2.3-3.1
			c-0.2-0.8-0.5-1.6-0.8-2.3c-0.8-2.6-1.9-5.3-2.3-7.9c-2.2-9.9-1.2-30.4,4.7-38.9c2.2-3.3,4.8-6.1,7.5-9.2c2.5-3,5.3-5.6,7.6-8.5
			c5-6.2,7.3-13.2,5.9-21.3c-0.9-5.3-3.6-9.6-8.2-12.4c-9.2-5.3-20.5,0.5-24.2,6.5c-2.6,4.2-1.6,9,2.3,12c2.2,1.7,4.8,2.3,7.8,2.3
			c-0.8,1.9-2,2.3-3.4,2.5c-3.9,0.5-7.3-0.6-10.3-3.1c-2.2-1.9-3.3-4.3-3.1-7.1c0.2-3,0.9-5.6,2.6-8.1c5.4-8.5,16.2-13,26.1-11.2
			c5,0.9,9.5,3,13.8,5.6c7.3,4.5,10.9,10.9,10.3,19.4c-0.5,7.1-3.1,13.2-7.8,18.6c-4.5,5.3-9.2,10.6-12.4,16.6
			c-4.5,8.7-6.2,28.5-2.3,38c0.9,2.3,1.7,4.7,2.5,6.8c0.3,0.8,0.6,1.7,1.2,2.3c0.9,1.1,2.3,1.4,3.6,0.8c1.1-0.6,1.4-1.9,0.9-3.3
			c-0.3-0.8-0.8-1.4-0.9-2.2c-0.5-1.1-0.9-2.2-1.1-3.3c-0.8-7.6,0.2-25.5,4-32.4c6.1-10.6,14.9-17.1,26.6-19.9
			c3.4-0.8,7-1.1,10.4-0.6c4.7,0.6,7.6,3.1,9,7.5c1.1,3.4,1.2,6.8,0.8,10.4c-1.2,9-7.3,13.5-15.2,14.9c-2.2,0.5-3.4-0.3-4.8-1.9
			c0.6-0.2,1.2-0.3,1.9-0.5c3-0.9,5.4-2.6,7.1-5.3c4.3-6.2,0.9-14.8-6.4-16.5c-7.1-1.6-13,0.6-18.2,5.6c-1.7,1.7-3,3.7-3.6,6.1
			c-1.9,7.5-1.6,25.5,1.9,32.5c2.3,4.8,6.8,6.8,11.8,7.8c1.7,0.3,2.8-0.9,2.6-2.6c0-1.9-0.9-3.1-2.5-4c-1.6-0.9-3.3-2-4-3.4
			c-3.4-6.4-4-23.7-0.2-30.2c1.9-3.1,4.7-4.8,8.2-4.7c1.1,0,2.2,0.5,3.1,1.1c1.4,0.9,1.4,1.4,0.6,2.8c-1.4,2.6-3.7,4-6.5,4.7
			c-2.6,0.6-3.6,2.2-3,5c0.6,3.1,2.6,5.3,5.1,7.1c1.7,1.2,3.6,1.9,5.6,1.7c6.7-0.6,12.6-3.3,16.6-8.9c5.7-7.8,5.9-16.3,2.5-24.9
			C243.3,116.1,239.5,113.2,234.6,112.4z M146.3,142.4c-1.4-3.9-4.2-7.1-4.3-11.5C146,131.2,148.7,138,146.3,142.4z"/>
		<path class="st9" d="M218.3,104.3c0.9,0.8,2,0.6,3,0c1.2-0.9,2.6-1.7,3.6-3c1.6-1.9,3-4,4.3-6.2c0.5-2.2,1.2-4.5,1.4-6.7
			c0.2-1.9-0.2-3.7-0.8-5.4c-1.7-4-5.9-4.7-8.9-1.4c-1.6,1.9-2,4-2,6.4c0,4.5,0.5,9-1.6,13.2C217,102.3,217.2,103.6,218.3,104.3z
			 M225.1,84.5c1.6,2.6,1.1,6.2-0.9,9.5C223.2,90.2,223.5,86.8,225.1,84.5z"/>
		<path class="st9" d="M144.3,103.6c2.2,0.5,3.7-0.9,3-3c-0.8-2.3-0.5-4.5-0.2-6.7c0.3-2,0.8-4,1.1-6.1c0.2-1.4,0.2-3-0.2-4.3
			c-0.8-3.3-3.7-4.5-6.7-2.8c-1.9,1.1-3.1,2.8-4,4.8c-2,5.6-1.1,10.7,2.3,15.4C140.9,102.3,142.5,103.2,144.3,103.6z M143.1,85.2
			c0.6,1.6,0,6.1-1.2,9.3C140.3,91.3,140.8,88.2,143.1,85.2z"/>
		<path class="st9" d="M244.4,98c-1.6-0.6-3.4-0.8-5-0.6c-4.7,0.3-8.7,2.6-12.3,5.6c-0.8,0.6-1.6,1.4-2.5,2
			c-0.8,0.6-1.2,1.2-1.1,2.3c0.2,0.9,0.8,1.6,1.7,1.9c0.3,0.2,0.8,0.2,1.2,0.3c5.4,0.9,10.9,0.5,16.2-1.6c1.9-0.6,3.6-1.7,4.3-3.3
			C248.2,101.8,247.2,98.9,244.4,98z M232.9,105c2.3-2.5,6.4-3.6,9.8-2.6C240.3,104,236.4,105.1,232.9,105z"/>
		<path class="st9" d="M126.2,98.3c0,0,0.2,0.2,0.3,0.2c1.1,0.6,2,0.6,3-0.2c0.9-0.8,1.1-2,0.5-3c-1.7-2.8-1.1-5.6-0.2-8.4
			c0.5-1.6,0.8-3.3,0.9-5c0.2-2.5-1.2-4.5-3.4-5.3c-2-0.8-4.3-0.2-5.7,2c-0.9,1.4-1.7,3.1-2.2,4.8C117.8,88.6,120.6,95.3,126.2,98.3
			z M125.7,81.2c0.5,2.6-0.9,4.8-1.4,7.5C123,85.7,123.5,82.9,125.7,81.2z"/>
		<path class="st9" d="M234.6,91.1c0.9,0.6,1.9,0.5,2.8-0.2c3.7-2.8,7.1-5.6,9.5-9.9c0.3-1.9,0.8-3.9,0.8-5.7c0-2.2-1.1-3.9-3.3-4.8
			c-2.2-0.8-4,0-5.4,1.6c-0.5,0.5-0.9,0.9-1.2,1.6c-0.6,1.1-1.1,2.3-1.6,3.6c-1.1,3.6-0.8,7.5-2.5,10.9
			C232.9,89.1,233.5,90.5,234.6,91.1z M242.3,75.4c0.6,2.6-0.5,4.7-2.3,6.4C240.2,79.5,240.5,77.1,242.3,75.4z"/>
		<path class="st9" d="M129.6,107.3c1.6-0.6,1.7-2.2,0.8-3.4c-1.2-1.9-3-2.8-5.1-2.8c-4.5-0.2-8.4,1.4-11.5,4.8
			c-0.5,0.6-0.9,1.4-1.2,1.7c-0.9,2.3-0.9,4.3,0.6,6.1c1.4,1.7,3.4,2,5.3,1.2c1.7-0.6,3.4-1.6,4.8-2.6
			C125.4,110.4,127.1,108.4,129.6,107.3z M116.4,110.2c1.4-2.6,3.3-3.7,5.7-4C120.9,108.1,119.5,109.9,116.4,110.2z"/>
	</g>
	<path class="st8" d="M318.9,172.7c-0.2-0.2-0.4-0.3-0.6-0.4c-1.8-0.6-3.7-1.2-5.5-1.9c-2.2-0.9-3.4-2.3-5.2-3.7
		c-1.6-1.2-3.2-2-5.2-2.2c-3-0.3-5.8,1.1-8.7,1.8c-5.1,1.2-8.6-1-13-3.2c-5-2.5-10.4-3.3-15.7-1.3c-6.1,2.2-11.9,9.6-18.5,9.4
		c-1,0-1.5,0.7-1.5,1.4c-0.1,0.7,0.2,1.5,1.1,1.8c5,1.2,9.4-0.7,13.8-2.9c3-1.5,6-3.4,9.4-4c4.6-0.7,7.2,2.2,10.7,4.5
		c5.2,3.5,11.2,3.6,17.2,2.2c4.4-1,7.6-0.3,11.7,1.1c3.3,1.1,6.6,1,10,0.4C320.4,175.4,320.1,173.3,318.9,172.7z"/>
</g>
</svg>
